<svg width="122" height="116" viewBox="0 0 122 116" fill="none" xmlns="http://www.w3.org/2000/svg">
<path d="M122 65.49C122 67.6085 121.64 69.5605 120.921 71.346C120.215 73.1181 119.209 74.6437 117.903 75.9228C116.611 77.2019 115.052 78.2012 113.227 78.9207C111.401 79.6402 109.376 80 107.151 80H96V51H107.151C109.376 51 111.401 51.3598 113.227 52.0793C115.052 52.7988 116.611 53.8047 117.903 55.0972C119.209 56.3763 120.215 57.9019 120.921 59.674C121.64 61.4461 122 63.3848 122 65.49ZM115.845 65.49C115.845 63.9711 115.645 62.6053 115.245 61.3928C114.846 60.1803 114.273 59.1544 113.527 58.315C112.78 57.4755 111.868 56.8293 110.789 56.3763C109.723 55.9233 108.51 55.6968 107.151 55.6968H102.035V75.3032H107.151C108.51 75.3032 109.723 75.0834 110.789 74.6437C111.868 74.1907 112.78 73.5445 113.527 72.705C114.273 71.8523 114.846 70.8197 115.245 69.6072C115.645 68.3947 115.845 67.0223 115.845 65.49Z" fill="#67C39F"/>
<path fill-rule="evenodd" clip-rule="evenodd" d="M16.0903 56.0961L13.9309 51L11.5348 55.9892L4.21179 71.2378L0 80.0079H5.5467L8.03813 74.8201H18.5941L20.7924 80.0079H26.2228L22.5518 71.3447L16.0903 56.0961ZM16.4754 69.8201H10.4393L13.646 63.1429L16.4754 69.8201Z" fill="#67C39F"/>
<path d="M54.9786 106.206H54.0726V101.853H54.9786V106.206Z" fill="#67C39F"/>
<path d="M62.7202 104.028C62.7202 104.408 62.6792 104.738 62.5972 105.018C62.5152 105.298 62.4022 105.53 62.2582 105.714C62.1142 105.896 61.9432 106.032 61.7452 106.122C61.5492 106.21 61.3372 106.254 61.1092 106.254C60.8812 106.254 60.6692 106.21 60.4732 106.122C60.2772 106.032 60.1082 105.896 59.9662 105.714C59.8242 105.53 59.7122 105.298 59.6302 105.018C59.5502 104.738 59.5102 104.408 59.5102 104.028C59.5102 103.648 59.5502 103.319 59.6302 103.041C59.7122 102.761 59.8242 102.53 59.9662 102.348C60.1082 102.164 60.2772 102.028 60.4732 101.94C60.6692 101.85 60.8812 101.805 61.1092 101.805C61.3372 101.805 61.5492 101.85 61.7452 101.94C61.9432 102.028 62.1142 102.164 62.2582 102.348C62.4022 102.53 62.5152 102.761 62.5972 103.041C62.6792 103.319 62.7202 103.648 62.7202 104.028ZM61.8652 104.028C61.8652 103.72 61.8432 103.466 61.7992 103.266C61.7572 103.066 61.7012 102.908 61.6312 102.792C61.5612 102.676 61.4802 102.595 61.3882 102.549C61.2982 102.503 61.2052 102.48 61.1092 102.48C61.0132 102.48 60.9202 102.503 60.8302 102.549C60.7422 102.595 60.6632 102.676 60.5932 102.792C60.5252 102.908 60.4702 103.066 60.4282 103.266C60.3862 103.466 60.3652 103.72 60.3652 104.028C60.3652 104.338 60.3862 104.593 60.4282 104.793C60.4702 104.993 60.5252 105.151 60.5932 105.267C60.6632 105.383 60.7422 105.464 60.8302 105.51C60.9202 105.556 61.0132 105.579 61.1092 105.579C61.2052 105.579 61.2982 105.556 61.3882 105.51C61.4802 105.464 61.5612 105.383 61.6312 105.267C61.7012 105.151 61.7572 104.993 61.7992 104.793C61.8432 104.593 61.8652 104.338 61.8652 104.028Z" fill="#67C39F"/>
<path d="M59.0089 104.028C59.0089 104.408 58.9679 104.738 58.8859 105.018C58.8039 105.298 58.6909 105.53 58.5469 105.714C58.4029 105.896 58.2319 106.032 58.0339 106.122C57.8379 106.21 57.6259 106.254 57.3979 106.254C57.1699 106.254 56.9579 106.21 56.7619 106.122C56.5659 106.032 56.3969 105.896 56.2549 105.714C56.1129 105.53 56.0009 105.298 55.9189 105.018C55.8389 104.738 55.7989 104.408 55.7989 104.028C55.7989 103.648 55.8389 103.319 55.9189 103.041C56.0009 102.761 56.1129 102.53 56.2549 102.348C56.3969 102.164 56.5659 102.028 56.7619 101.94C56.9579 101.85 57.1699 101.805 57.3979 101.805C57.6259 101.805 57.8379 101.85 58.0339 101.94C58.2319 102.028 58.4029 102.164 58.5469 102.348C58.6909 102.53 58.8039 102.761 58.8859 103.041C58.9679 103.319 59.0089 103.648 59.0089 104.028ZM58.1539 104.028C58.1539 103.72 58.1319 103.466 58.0879 103.266C58.0459 103.066 57.9899 102.908 57.9199 102.792C57.8499 102.676 57.7689 102.595 57.6769 102.549C57.5869 102.503 57.4939 102.48 57.3979 102.48C57.3019 102.48 57.2089 102.503 57.1189 102.549C57.0309 102.595 56.9519 102.676 56.8819 102.792C56.8139 102.908 56.7589 103.066 56.7169 103.266C56.6749 103.466 56.6539 103.72 56.6539 104.028C56.6539 104.338 56.6749 104.593 56.7169 104.793C56.7589 104.993 56.8139 105.151 56.8819 105.267C56.9519 105.383 57.0309 105.464 57.1189 105.51C57.2089 105.556 57.3019 105.579 57.3979 105.579C57.4939 105.579 57.5869 105.556 57.6769 105.51C57.7689 105.464 57.8499 105.383 57.9199 105.267C57.9899 105.151 58.0459 104.993 58.0879 104.793C58.1319 104.593 58.1539 104.338 58.1539 104.028Z" fill="#67C39F"/>
<path d="M66.3434 102.906C66.3434 103.068 66.3154 103.215 66.2594 103.347C66.2034 103.479 66.1274 103.593 66.0314 103.689C65.9374 103.783 65.8284 103.856 65.7044 103.908C65.5804 103.958 65.4514 103.983 65.3174 103.983C65.1694 103.983 65.0334 103.958 64.9094 103.908C64.7854 103.856 64.6774 103.783 64.5854 103.689C64.4954 103.593 64.4244 103.479 64.3724 103.347C64.3224 103.215 64.2974 103.068 64.2974 102.906C64.2974 102.738 64.3224 102.587 64.3724 102.453C64.4244 102.317 64.4954 102.202 64.5854 102.108C64.6774 102.012 64.7854 101.938 64.9094 101.886C65.0334 101.834 65.1694 101.808 65.3174 101.808C65.4654 101.808 65.6024 101.834 65.7284 101.886C65.8544 101.938 65.9624 102.012 66.0524 102.108C66.1444 102.202 66.2154 102.317 66.2654 102.453C66.3174 102.587 66.3434 102.738 66.3434 102.906ZM65.7074 102.906C65.7074 102.798 65.6974 102.708 65.6774 102.636C65.6574 102.562 65.6294 102.503 65.5934 102.459C65.5594 102.415 65.5184 102.384 65.4704 102.366C65.4224 102.346 65.3714 102.336 65.3174 102.336C65.2634 102.336 65.2124 102.346 65.1644 102.366C65.1184 102.384 65.0784 102.415 65.0444 102.459C65.0124 102.503 64.9864 102.562 64.9664 102.636C64.9484 102.708 64.9394 102.798 64.9394 102.906C64.9394 103.012 64.9484 103.1 64.9664 103.17C64.9864 103.24 65.0124 103.297 65.0444 103.341C65.0784 103.383 65.1184 103.413 65.1644 103.431C65.2124 103.449 65.2634 103.458 65.3174 103.458C65.3714 103.458 65.4224 103.449 65.4704 103.431C65.5184 103.413 65.5594 103.383 65.5934 103.341C65.6294 103.297 65.6574 103.24 65.6774 103.17C65.6974 103.1 65.7074 103.012 65.7074 102.906ZM67.7534 101.979C67.7814 101.947 67.8144 101.918 67.8524 101.892C67.8924 101.866 67.9474 101.853 68.0174 101.853H68.6204L65.3654 106.086C65.3374 106.12 65.3034 106.149 65.2634 106.173C65.2234 106.195 65.1744 106.206 65.1164 106.206H64.5014L67.7534 101.979ZM68.8214 105.183C68.8214 105.345 68.7934 105.492 68.7374 105.624C68.6814 105.756 68.6054 105.87 68.5094 105.966C68.4154 106.06 68.3064 106.133 68.1824 106.185C68.0584 106.235 67.9294 106.26 67.7954 106.26C67.6474 106.26 67.5114 106.235 67.3874 106.185C67.2634 106.133 67.1554 106.06 67.0634 105.966C66.9734 105.87 66.9024 105.756 66.8504 105.624C66.8004 105.492 66.7754 105.345 66.7754 105.183C66.7754 105.015 66.8004 104.864 66.8504 104.73C66.9024 104.594 66.9734 104.479 67.0634 104.385C67.1554 104.289 67.2634 104.216 67.3874 104.166C67.5114 104.114 67.6474 104.088 67.7954 104.088C67.9434 104.088 68.0804 104.114 68.2064 104.166C68.3324 104.216 68.4404 104.289 68.5304 104.385C68.6224 104.479 68.6934 104.594 68.7434 104.73C68.7954 104.864 68.8214 105.015 68.8214 105.183ZM68.1854 105.183C68.1854 105.075 68.1754 104.985 68.1554 104.913C68.1354 104.839 68.1074 104.78 68.0714 104.736C68.0374 104.692 67.9964 104.661 67.9484 104.643C67.9004 104.623 67.8494 104.613 67.7954 104.613C67.7414 104.613 67.6904 104.623 67.6424 104.643C67.5964 104.661 67.5564 104.692 67.5224 104.736C67.4904 104.78 67.4644 104.839 67.4444 104.913C67.4264 104.985 67.4174 105.075 67.4174 105.183C67.4174 105.289 67.4264 105.377 67.4444 105.447C67.4644 105.517 67.4904 105.574 67.5224 105.618C67.5564 105.66 67.5964 105.69 67.6424 105.708C67.6904 105.726 67.7414 105.735 67.7954 105.735C67.8494 105.735 67.9004 105.726 67.9484 105.708C67.9964 105.69 68.0374 105.66 68.0714 105.618C68.1074 105.574 68.1354 105.517 68.1554 105.447C68.1754 105.377 68.1854 105.289 68.1854 105.183Z" fill="#67C39F"/>
<path d="M13.3711 18.5567L51.7216 56.9072M108.629 18.5567L70.2784 56.9072M13.3711 113.814L51.7216 75.4639M70.2784 75.4639L108.629 113.814" stroke="#67C39F" stroke-width="5"/>
<mask id="path-8-outside-1" maskUnits="userSpaceOnUse" x="54" y="57" width="15" height="18" fill="black">
<rect fill="white" x="54" y="57" width="15" height="18"/>
<path fill-rule="evenodd" clip-rule="evenodd" d="M60.7269 62.9413C61.932 62.9413 62.8324 62.0177 62.8324 60.9707C62.8324 59.9236 61.932 59 60.7269 59C59.5219 59 58.6215 59.9236 58.6215 60.9707C58.6215 62.0177 59.5219 62.9413 60.7269 62.9413ZM60.7269 63.9413C62.442 63.9413 63.8324 62.6113 63.8324 60.9707C63.8324 59.33 62.442 58 60.7269 58C59.0118 58 57.6215 59.33 57.6215 60.9707C57.6215 62.0624 58.2372 63.0166 59.1545 63.5329C58.6458 63.6308 58.1524 63.802 57.6917 64.043C56.7545 64.5335 55.9989 65.2893 55.5286 66.2069C55.0583 67.1244 54.8963 68.1587 55.0648 69.1678C55.2334 70.1769 55.7242 71.1114 56.47 71.8431C57.2158 72.5748 58.18 73.0678 59.2303 73.2544C60.2806 73.4411 61.3656 73.3123 62.3363 72.8857C63.307 72.4591 64.116 71.7556 64.6522 70.8718C65.0468 70.2214 65.2794 69.4969 65.3372 68.7539C65.3988 68.7941 65.4602 68.8325 65.5218 68.8694C66.1056 69.2196 66.6722 69.4169 67.351 69.5986L67.6386 68.6528C67.0055 68.4833 66.5405 68.3161 66.07 68.0339C65.5941 67.7484 65.0887 67.3309 64.4001 66.633L63.6566 67.3153C64.1334 67.7986 64.5467 68.1742 64.9406 68.4738C64.9252 69.2451 64.7053 70.003 64.2977 70.6749C63.8039 71.4888 63.059 72.1365 62.1652 72.5293C61.2713 72.9222 60.2723 73.0407 59.3052 72.8689C58.3381 72.697 57.4502 72.243 56.7635 71.5693C56.0768 70.8956 55.6248 70.0351 55.4696 69.1059C55.3144 68.1768 55.4636 67.2244 55.8967 66.3795C56.3297 65.5346 57.0255 64.8387 57.8885 64.3871C58.5114 64.0611 59.1994 63.874 59.9016 63.8352C60.1644 63.9044 60.4412 63.9413 60.7269 63.9413Z"/>
</mask>
<path fill-rule="evenodd" clip-rule="evenodd" d="M60.7269 62.9413C61.932 62.9413 62.8324 62.0177 62.8324 60.9707C62.8324 59.9236 61.932 59 60.7269 59C59.5219 59 58.6215 59.9236 58.6215 60.9707C58.6215 62.0177 59.5219 62.9413 60.7269 62.9413ZM60.7269 63.9413C62.442 63.9413 63.8324 62.6113 63.8324 60.9707C63.8324 59.33 62.442 58 60.7269 58C59.0118 58 57.6215 59.33 57.6215 60.9707C57.6215 62.0624 58.2372 63.0166 59.1545 63.5329C58.6458 63.6308 58.1524 63.802 57.6917 64.043C56.7545 64.5335 55.9989 65.2893 55.5286 66.2069C55.0583 67.1244 54.8963 68.1587 55.0648 69.1678C55.2334 70.1769 55.7242 71.1114 56.47 71.8431C57.2158 72.5748 58.18 73.0678 59.2303 73.2544C60.2806 73.4411 61.3656 73.3123 62.3363 72.8857C63.307 72.4591 64.116 71.7556 64.6522 70.8718C65.0468 70.2214 65.2794 69.4969 65.3372 68.7539C65.3988 68.7941 65.4602 68.8325 65.5218 68.8694C66.1056 69.2196 66.6722 69.4169 67.351 69.5986L67.6386 68.6528C67.0055 68.4833 66.5405 68.3161 66.07 68.0339C65.5941 67.7484 65.0887 67.3309 64.4001 66.633L63.6566 67.3153C64.1334 67.7986 64.5467 68.1742 64.9406 68.4738C64.9252 69.2451 64.7053 70.003 64.2977 70.6749C63.8039 71.4888 63.059 72.1365 62.1652 72.5293C61.2713 72.9222 60.2723 73.0407 59.3052 72.8689C58.3381 72.697 57.4502 72.243 56.7635 71.5693C56.0768 70.8956 55.6248 70.0351 55.4696 69.1059C55.3144 68.1768 55.4636 67.2244 55.8967 66.3795C56.3297 65.5346 57.0255 64.8387 57.8885 64.3871C58.5114 64.0611 59.1994 63.874 59.9016 63.8352C60.1644 63.9044 60.4412 63.9413 60.7269 63.9413Z" fill="#67C39F"/>
<path d="M59.1545 63.5329L59.3436 64.5149L62.0219 63.9992L59.645 62.6614L59.1545 63.5329ZM57.6917 64.043L58.1554 64.929L57.6917 64.043ZM55.5286 66.2069L56.4185 66.663L56.4185 66.663L55.5286 66.2069ZM55.0648 69.1678L54.0785 69.3326L54.0785 69.3326L55.0648 69.1678ZM56.47 71.8431L55.7697 72.5569L55.7697 72.5569L56.47 71.8431ZM59.2303 73.2544L59.4053 72.2699L59.4053 72.2699L59.2303 73.2544ZM64.6522 70.8718L63.7973 70.3531L63.7973 70.3531L64.6522 70.8718ZM65.3372 68.7539L65.883 67.9161L64.4709 66.9961L64.3402 68.6764L65.3372 68.7539ZM65.5218 68.8694L65.0074 69.727L65.0074 69.727L65.5218 68.8694ZM67.351 69.5986L67.0924 70.5646L68.0266 70.8147L68.3078 69.8895L67.351 69.5986ZM67.6386 68.6528L68.5953 68.9436L68.8961 67.9542L67.8971 67.6868L67.6386 68.6528ZM66.07 68.0339L65.5557 68.8915L65.5557 68.8915L66.07 68.0339ZM64.4001 66.633L65.112 65.9306L64.4346 65.2441L63.724 65.8962L64.4001 66.633ZM63.6566 67.3153L62.9805 66.5785L62.2166 67.2796L62.9448 68.0176L63.6566 67.3153ZM64.9406 68.4738L65.9404 68.4938L65.9506 67.9855L65.5459 67.6778L64.9406 68.4738ZM64.2977 70.6749L65.1526 71.1936L65.1526 71.1936L64.2977 70.6749ZM62.1652 72.5293L62.5675 73.4449L62.5675 73.4449L62.1652 72.5293ZM59.3052 72.8689L59.4802 71.8843L59.4802 71.8843L59.3052 72.8689ZM56.7635 71.5693L56.0632 72.2832L56.0632 72.2832L56.7635 71.5693ZM55.8967 66.3795L56.7866 66.8357L56.7866 66.8357L55.8967 66.3795ZM57.8885 64.3871L58.3521 65.2731L58.3521 65.2731L57.8885 64.3871ZM59.9016 63.8352L60.156 62.8682L60.0037 62.8281L59.8465 62.8368L59.9016 63.8352ZM61.8324 60.9707C61.8324 61.4301 61.4157 61.9413 60.7269 61.9413V63.9413C62.4483 63.9413 63.8324 62.6052 63.8324 60.9707H61.8324ZM60.7269 60C61.4157 60 61.8324 60.5112 61.8324 60.9707H63.8324C63.8324 59.3361 62.4483 58 60.7269 58V60ZM59.6215 60.9707C59.6215 60.5112 60.0382 60 60.7269 60V58C59.0055 58 57.6215 59.3361 57.6215 60.9707H59.6215ZM60.7269 61.9413C60.0382 61.9413 59.6215 61.4301 59.6215 60.9707H57.6215C57.6215 62.6052 59.0055 63.9413 60.7269 63.9413V61.9413ZM62.8324 60.9707C62.8324 62.0177 61.932 62.9413 60.7269 62.9413V64.9413C62.952 64.9413 64.8324 63.2049 64.8324 60.9707H62.8324ZM60.7269 59C61.932 59 62.8324 59.9236 62.8324 60.9707H64.8324C64.8324 58.7364 62.952 57 60.7269 57V59ZM58.6215 60.9707C58.6215 59.9236 59.5219 59 60.7269 59V57C58.5018 57 56.6215 58.7364 56.6215 60.9707H58.6215ZM59.645 62.6614C59.0158 62.3074 58.6215 61.6718 58.6215 60.9707H56.6215C56.6215 62.4531 57.4585 63.7259 58.664 64.4043L59.645 62.6614ZM58.1554 64.929C58.5284 64.7338 58.9292 64.5946 59.3436 64.5149L58.9654 62.5509C58.3624 62.667 57.7763 62.8701 57.2281 63.157L58.1554 64.929ZM56.4185 66.663C56.792 65.9344 57.3962 65.3263 58.1554 64.929L57.2281 63.157C56.1128 63.7406 55.2059 64.6443 54.6387 65.7507L56.4185 66.663ZM56.0512 69.0031C55.9183 68.2077 56.0454 67.3909 56.4185 66.663L54.6387 65.7507C54.0712 66.8579 53.8742 68.1097 54.0785 69.3326L56.0512 69.0031ZM57.1703 71.1293C56.5721 70.5424 56.1841 69.7988 56.0512 69.0031L54.0785 69.3326C54.2827 70.555 54.8763 71.6805 55.7697 72.5569L57.1703 71.1293ZM59.4053 72.2699C58.5489 72.1177 57.7691 71.7167 57.1703 71.1293L55.7697 72.5569C56.6625 73.4328 57.8111 74.0179 59.0553 74.239L59.4053 72.2699ZM61.934 71.9702C61.1457 72.3166 60.2618 72.4221 59.4053 72.2699L59.0553 74.239C60.2994 74.4601 61.5854 74.308 62.7386 73.8012L61.934 71.9702ZM63.7973 70.3531C63.3705 71.0566 62.7218 71.624 61.934 71.9702L62.7386 73.8012C63.8923 73.2942 64.8616 72.4547 65.5072 71.3904L63.7973 70.3531ZM64.3402 68.6764C64.2946 69.2621 64.1111 69.8357 63.7973 70.3531L65.5072 71.3904C65.9824 70.6072 66.2642 69.7317 66.3342 68.8315L64.3402 68.6764ZM66.0361 68.0118C65.9854 67.9814 65.9345 67.9496 65.883 67.9161L64.7913 69.5918C64.863 69.6386 64.935 69.6836 65.0074 69.727L66.0361 68.0118ZM67.6096 68.6326C66.9744 68.4626 66.5075 68.2946 66.0361 68.0118L65.0074 69.727C65.7037 70.1446 66.3699 70.3712 67.0924 70.5646L67.6096 68.6326ZM66.6818 68.3619L66.3943 69.3078L68.3078 69.8895L68.5953 68.9436L66.6818 68.3619ZM65.5557 68.8915C66.1387 69.2411 66.7034 69.4376 67.38 69.6188L67.8971 67.6868C67.3076 67.529 66.9424 67.391 66.5844 67.1763L65.5557 68.8915ZM63.6883 67.3353C64.4042 68.0609 64.9771 68.5444 65.5557 68.8915L66.5844 67.1763C66.211 66.9524 65.7733 66.601 65.112 65.9306L63.6883 67.3353ZM64.3328 68.052L65.0763 67.3697L63.724 65.8962L62.9805 66.5785L64.3328 68.052ZM65.5459 67.6778C65.203 67.417 64.8263 67.077 64.3685 66.613L62.9448 68.0176C63.4406 68.5201 63.8904 68.9315 64.3354 69.2698L65.5459 67.6778ZM65.1526 71.1936C65.6508 70.3725 65.9215 69.4427 65.9404 68.4938L63.9408 68.4538C63.929 69.0476 63.7597 69.6336 63.4427 70.1562L65.1526 71.1936ZM62.5675 73.4449C63.6442 72.9717 64.5495 72.1878 65.1526 71.1936L63.4427 70.1562C63.0584 70.7897 62.4738 71.3014 61.7629 71.6138L62.5675 73.4449ZM59.1302 73.8534C60.2911 74.0598 61.4911 73.9179 62.5675 73.4449L61.7629 71.6138C61.0515 71.9264 60.2535 72.0217 59.4802 71.8843L59.1302 73.8534ZM56.0632 72.2832C56.897 73.1011 57.9691 73.6471 59.1302 73.8534L59.4802 71.8843C58.707 71.7469 58.0035 71.385 57.4638 70.8555L56.0632 72.2832ZM54.4833 69.2707C54.6741 70.4132 55.2289 71.4646 56.0632 72.2832L57.4638 70.8555C56.9247 70.3266 56.5755 69.657 56.456 68.9412L54.4833 69.2707ZM55.0068 65.9234C54.4765 66.9579 54.2924 68.1278 54.4833 69.2707L56.456 68.9412C56.3365 68.2257 56.4507 67.4909 56.7866 66.8357L55.0068 65.9234ZM57.4248 63.501C56.3838 64.0458 55.5367 64.8896 55.0068 65.9234L56.7866 66.8357C57.1228 66.1797 57.6672 65.6315 58.3521 65.2731L57.4248 63.501ZM59.8465 62.8368C59.0038 62.8832 58.1762 63.1078 57.4248 63.501L58.3521 65.2731C58.8466 65.0143 59.395 64.8647 59.9566 64.8337L59.8465 62.8368ZM60.7269 62.9413C60.5276 62.9413 60.3363 62.9156 60.156 62.8682L59.6472 64.8023C59.9925 64.8932 60.3547 64.9413 60.7269 64.9413V62.9413Z" fill="#67C39F" mask="url(#path-8-outside-1)"/>
<path d="M71.5 18.5C71.5 25.1274 66.1274 30.5 59.5 30.5C52.8726 30.5 47.5 25.1274 47.5 18.5C47.5 11.8726 52.8726 6.5 59.5 6.5C66.1274 6.5 71.5 11.8726 71.5 18.5Z" stroke="#67C39F" stroke-width="5"/>
</svg>
