<svg width="34" height="71" viewBox="0 0 34 71" fill="none" xmlns="http://www.w3.org/2000/svg">
    <path fill-rule="evenodd" clip-rule="evenodd" d="M17 0.224602C19.2091 0.224602 21 2.01546 21 4.2246V21.4555C23.5551 21.7755 26.2851 22.7148 28.5853 24.4428C31.6082 26.7138 33.7833 30.2865 33.7833 35.1535V59.8965C33.7833 61.1203 33.0506 62.1729 32 62.6396V69C32 70.1046 31.1046 71 30 71C28.8954 71 28 70.1046 28 69V61.0181C27.8603 60.6716 27.7833 60.2931 27.7833 59.8965V35.1535C27.7833 32.2883 26.5901 30.4485 24.9814 29.2399C23.4934 28.1221 21.5747 27.5048 19.7953 27.3612C19.3918 27.7555 18.9052 28.0651 18.3642 28.2613C18.1273 28.7779 17.6056 29.1367 17 29.1367C16.3945 29.1367 15.8728 28.778 15.6359 28.2614C15.0949 28.0651 14.6083 27.7555 14.2047 27.3612C12.4253 27.5048 10.5066 28.1221 9.0186 29.2399C7.40992 30.4485 6.21667 32.2883 6.21667 35.1535V59.8965C6.21667 60.2931 6.13975 60.6716 6 61.0181V69C6 70.1046 5.10457 71 4 71C2.89543 71 2 70.1046 2 69V62.6396C0.949371 62.1729 0.216675 61.1203 0.216675 59.8965V35.1535C0.216675 30.2865 2.39185 26.7138 5.41475 24.4428C7.71492 22.7148 10.4449 21.7755 13 21.4555V4.2246C13 2.01546 14.7909 0.224602 17 0.224602Z" fill="#67C39F"/>
</svg>
