<svg width="34" height="24" viewBox="0 0 34 24" fill="none" xmlns="http://www.w3.org/2000/svg">
    <path fill-rule="evenodd" clip-rule="evenodd" d="M29.9024 1.24499C29.5984 0.783894 28.9782 0.656526 28.5171 0.960509C28.056 1.26449 27.9286 1.88471 28.2326 2.34581L29.0227 3.54427L13.6701 7.26262L13.1273 5.1279C12.9912 4.59264 12.447 4.26907 11.9117 4.40518C11.3765 4.54129 11.0529 5.08553 11.189 5.62078L11.8276 8.13209L1.26051 17.7578L0.750042 18.2228L1.00403 18.8649L1.79051 20.8532L2.04057 21.4854H2.7204H14.1329C14.2356 22.7073 15.2489 23.6667 16.4838 23.6667C17.7869 23.6667 18.8433 22.5984 18.8433 21.2807C18.8433 20.946 18.7751 20.6273 18.652 20.3382L30.5518 5.86379L31.3785 7.11773C31.6825 7.57882 32.3027 7.70619 32.7638 7.40221C33.2249 7.09823 33.3523 6.478 33.0483 6.0169L31.4753 3.63095L29.9024 1.24499ZM17.1663 18.9961L27.9678 5.85757L14.1669 9.20013L16.6348 18.7498C16.6479 18.8004 16.6569 18.851 16.6619 18.9015C16.836 18.9146 17.0048 18.9468 17.1663 18.9961ZM3.1178 18.7714L12.3916 10.3237L14.6984 19.2502C14.7222 19.3423 14.7581 19.428 14.8039 19.5062C14.7381 19.4926 14.6699 19.4854 14.6 19.4854H3.40024L3.1178 18.7714ZM17.3433 21.2807C17.3433 21.7859 16.9427 22.1667 16.4838 22.1667C16.0249 22.1667 15.6244 21.7859 15.6244 21.2807C15.6244 20.7756 16.0249 20.3948 16.4838 20.3948C16.9427 20.3948 17.3433 20.7756 17.3433 21.2807Z" fill="#67C39F"/>
</svg>
