<svg width="48" height="48" viewBox="0 0 48 48" fill="none" xmlns="http://www.w3.org/2000/svg">
    <path fill-rule="evenodd" clip-rule="evenodd" d="M3.6 5.2C4.48366 5.2 5.2 4.48366 5.2 3.6C5.2 2.71634 4.48366 2 3.6 2C2.71634 2 2 2.71634 2 3.6C2 4.48366 2.71634 5.2 3.6 5.2ZM6.97551 4.85419C7.12067 4.46364 7.2 4.04109 7.2 3.6C7.2 1.61177 5.58823 0 3.6 0C1.61177 0 0 1.61177 0 3.6C0 5.58823 1.61177 7.2 3.6 7.2C4.04109 7.2 4.46364 7.12067 4.85419 6.97551L7.70248 9.8238C4.39983 13.6174 2.4 18.5752 2.4 24C2.4 35.9293 12.0706 45.6 24 45.6C29.4248 45.6 34.3826 43.6002 38.1762 40.2975L41.0245 43.1458C40.8793 43.5364 40.8 43.9589 40.8 44.4C40.8 46.3882 42.4118 48 44.4 48C46.3882 48 48 46.3882 48 44.4C48 42.4118 46.3882 40.8 44.4 40.8C43.9589 40.8 43.5364 40.8793 43.1458 41.0245L40.2975 38.1762C43.6002 34.3826 45.6 29.4248 45.6 24C45.6 12.0706 35.9293 2.4 24 2.4C18.5752 2.4 13.6174 4.39983 9.8238 7.70248L6.97551 4.85419ZM44.4 46C45.2837 46 46 45.2837 46 44.4C46 43.5163 45.2837 42.8 44.4 42.8C43.5163 42.8 42.8 43.5163 42.8 44.4C42.8 45.2837 43.5163 46 44.4 46ZM23 42.5736V38.3658C20.243 38.1767 17.6993 37.2115 15.5857 35.6872C15.2359 35.8863 14.8312 36 14.4 36C14.2405 36 14.0846 35.9844 13.9337 35.9547L11.693 37.9465C14.7392 40.6367 18.6735 42.3444 23 42.5736ZM12.0007 33.6591C12.0002 33.6395 12 33.6198 12 33.6C12 33.1688 12.1137 32.7641 12.3128 32.4143C10.7885 30.3007 9.82329 27.757 9.63418 25H5.42642C5.64274 29.0832 7.17597 32.8172 9.60916 35.7849L12.0007 33.6591ZM13.4339 31.4024C13.7295 31.2722 14.0563 31.2 14.4 31.2C14.5155 31.2 14.6291 31.2082 14.7403 31.2239L18.1477 28.1951C17.4834 27.2699 17.033 26.1808 16.8689 25H11.1382C11.32 27.3712 12.1429 29.563 13.4339 31.4024ZM16.7928 33.4133C16.7976 33.4749 16.8 33.5372 16.8 33.6C16.8 33.9437 16.7277 34.2705 16.5976 34.5661C18.437 35.8571 20.6288 36.68 23 36.8618V31.1311C22.0556 30.9999 21.1698 30.6855 20.3797 30.225L16.7928 33.4133ZM25 38.3658V42.5736C29.2053 42.3508 33.0401 40.7312 36.049 38.1703L33.8643 35.9856C33.7775 35.9951 33.6893 36 33.6 36C33.1688 36 32.7641 35.8863 32.4143 35.6872C30.3007 37.2115 27.757 38.1767 25 38.3658ZM31.4024 34.5661C31.2722 34.2705 31.2 33.9437 31.2 33.6C31.2 33.5107 31.2049 33.4225 31.2144 33.3357L27.9194 30.0407C27.0563 30.6019 26.0654 30.9831 25 31.1311V36.8618C27.3712 36.68 29.563 35.8571 31.4024 34.5661ZM33.3357 31.2144C33.4225 31.2049 33.5107 31.2 33.6 31.2C33.9437 31.2 34.2705 31.2722 34.5661 31.4024C35.8571 29.563 36.68 27.3712 36.8618 25H31.1311C30.9831 26.0654 30.6019 27.0563 30.0407 27.9194L33.3357 31.2144ZM35.6872 32.4143C35.8863 32.7641 36 33.1688 36 33.6C36 33.6893 35.9951 33.7775 35.9856 33.8643L38.1703 36.049C40.7312 33.0401 42.3508 29.2053 42.5736 25H38.3658C38.1767 27.757 37.2115 30.3007 35.6872 32.4143ZM31.1311 23C31.0152 22.1656 30.7562 21.3769 30.3799 20.6596L33.4315 16.7942C33.4872 16.798 33.5434 16.8 33.6 16.8C33.9437 16.8 34.2705 16.7277 34.5661 16.5976C35.8571 18.437 36.68 20.6288 36.8618 23H31.1311ZM35.6872 15.5857C37.2115 17.6993 38.1767 20.243 38.3658 23H42.5736C42.3371 18.5357 40.5264 14.4889 37.6864 11.4046L35.8901 13.6799C35.9615 13.9072 36 14.1491 36 14.4C36 14.8312 35.8863 15.2359 35.6872 15.5857ZM33.3868 12.0093L35.4768 9.36195C32.5606 7.07232 28.9432 5.63532 25 5.42642V9.63418C27.757 9.82329 30.3007 10.7885 32.4143 12.3128C32.7058 12.1469 33.0354 12.0403 33.3868 12.0093ZM31.4024 13.4339C29.563 12.1429 27.3712 11.32 25 11.1382V16.8689C26.2746 17.046 27.4424 17.5567 28.4125 18.3101L31.225 14.7476C31.2085 14.6341 31.2 14.5181 31.2 14.4C31.2 14.0563 31.2722 13.7295 31.4024 13.4339ZM23 9.63418V5.42642C18.7947 5.64921 14.9599 7.26879 11.951 9.82973L14.1357 12.0144C14.2225 12.0049 14.3107 12 14.4 12C14.8312 12 15.2359 12.1137 15.5857 12.3128C17.6993 10.7885 20.243 9.82329 23 9.63418ZM16.5976 13.4339C16.7277 13.7295 16.8 14.0563 16.8 14.4C16.8 14.4893 16.7951 14.5775 16.7856 14.6643L20.0806 17.9593C20.9437 17.3981 21.9346 17.0169 23 16.8689V11.1382C20.6288 11.32 18.437 12.1429 16.5976 13.4339ZM14.6643 16.7856L17.9593 20.0806C17.3981 20.9437 17.0169 21.9346 16.8689 23H11.1382C11.32 20.6288 12.1429 18.437 13.4339 16.5976C13.7295 16.7277 14.0563 16.8 14.4 16.8C14.4893 16.8 14.5775 16.7951 14.6643 16.7856ZM12.3128 15.5857C10.7885 17.6993 9.82329 20.243 9.63418 23H5.42642C5.64921 18.7947 7.26879 14.9599 9.82973 11.951L12.0144 14.1357C12.0049 14.2225 12 14.3107 12 14.4C12 14.8312 12.1137 15.2359 12.3128 15.5857ZM24 28.2C26.3196 28.2 28.2 26.3196 28.2 24C28.2 21.6804 26.3196 19.8 24 19.8C21.6804 19.8 19.8 21.6804 19.8 24C19.8 26.3196 21.6804 28.2 24 28.2ZM16.4 14.4C16.4 15.5046 15.5046 16.4 14.4 16.4C13.2954 16.4 12.4 15.5046 12.4 14.4C12.4 13.2954 13.2954 12.4 14.4 12.4C15.5046 12.4 16.4 13.2954 16.4 14.4ZM33.6 16.4C34.7046 16.4 35.6 15.5046 35.6 14.4C35.6 13.2954 34.7046 12.4 33.6 12.4C32.4954 12.4 31.6 13.2954 31.6 14.4C31.6 15.5046 32.4954 16.4 33.6 16.4ZM33.6 35.6C34.7046 35.6 35.6 34.7046 35.6 33.6C35.6 32.4954 34.7046 31.6 33.6 31.6C32.4954 31.6 31.6 32.4954 31.6 33.6C31.6 34.7046 32.4954 35.6 33.6 35.6ZM14.4 35.6C15.5046 35.6 16.4 34.7046 16.4 33.6C16.4 32.4954 15.5046 31.6 14.4 31.6C13.2954 31.6 12.4 32.4954 12.4 33.6C12.4 34.7046 13.2954 35.6 14.4 35.6ZM14.4 15.6C15.0627 15.6 15.6 15.0627 15.6 14.4C15.6 13.7373 15.0627 13.2 14.4 13.2C13.7373 13.2 13.2 13.7373 13.2 14.4C13.2 15.0627 13.7373 15.6 14.4 15.6ZM33.6 34.8C34.2627 34.8 34.8 34.2627 34.8 33.6C34.8 32.9373 34.2627 32.4 33.6 32.4C32.9373 32.4 32.4 32.9373 32.4 33.6C32.4 34.2627 32.9373 34.8 33.6 34.8ZM15.6 33.6C15.6 34.2627 15.0627 34.8 14.4 34.8C13.7373 34.8 13.2 34.2627 13.2 33.6C13.2 32.9373 13.7373 32.4 14.4 32.4C15.0627 32.4 15.6 32.9373 15.6 33.6ZM33.6 15.6C34.2627 15.6 34.8 15.0627 34.8 14.4C34.8 13.7373 34.2627 13.2 33.6 13.2C32.9373 13.2 32.4 13.7373 32.4 14.4C32.4 15.0627 32.9373 15.6 33.6 15.6Z" fill="#67C39F"/>
</svg>
