<svg width="50" height="42" viewBox="0 0 50 42" fill="none" xmlns="http://www.w3.org/2000/svg">
    <path d="M19.7031 23.0619C19.7031 24.43 18.571 25.567 17.1397 25.567C15.7085 25.567 14.5764 24.43 14.5764 23.0619C14.5764 21.6937 15.7085 20.5567 17.1397 20.5567C18.571 20.5567 19.7031 21.6937 19.7031 23.0619Z" stroke="#67C39F" stroke-width="2"/>
    <path d="M43.5983 33.3711C43.5983 34.7392 42.4662 35.8763 41.0349 35.8763C39.6037 35.8763 38.4716 34.7392 38.4716 33.3711C38.4716 32.003 39.6037 30.866 41.0349 30.866C42.4662 30.866 43.5983 32.003 43.5983 33.3711Z" stroke="#67C39F" stroke-width="2"/>
    <path d="M11.3188 8.62886C11.3188 9.99697 10.1867 11.134 8.75546 11.134C7.3242 11.134 6.19214 9.99697 6.19214 8.62886C6.19214 7.26075 7.3242 6.1237 8.75546 6.1237C10.1867 6.1237 11.3188 7.26075 11.3188 8.62886Z" stroke="#67C39F" stroke-width="2"/>
    <path d="M35.214 18.5258C35.214 19.8939 34.0819 21.0309 32.6507 21.0309C31.2194 21.0309 30.0873 19.8939 30.0873 18.5258C30.0873 17.1577 31.2194 16.0206 32.6507 16.0206C34.0819 16.0206 35.214 17.1577 35.214 18.5258Z" stroke="#67C39F" stroke-width="2"/>
    <path d="M17.1397 15.433C15.6725 10.8969 16.9301 11.7217 16.9301 8.83505C16.9301 4.50787 13.364 1 8.96507 1C4.56608 1 1 4.50787 1 8.83505C1 13.1622 5.75109 15.5704 6.44978 16.2577C7.14847 16.945 8.58777 18.7732 8.75546 20.5876C8.92314 22.4021 9.38428 23.268 9.38428 23.268" stroke="#67C39F" stroke-width="2"/>
    <path d="M32.8603 26.567C34.3275 31.1031 33.0699 30.2783 33.0699 33.1649C33.0699 37.4921 36.636 41 41.0349 41C45.4339 41 49 37.4921 49 33.1649C49 28.8378 44.2489 26.4296 43.5502 25.7423C42.8515 25.055 41.4122 23.2268 41.2445 21.4124C41.0769 19.5979 40.6157 18.732 40.6157 18.732" stroke="#67C39F" stroke-width="2"/>
    <path d="M9.38428 23.268C9.38428 18.9409 12.9504 15.433 17.3493 15.433H18.8166C19.9748 15.433 23.7995 16.1325 25.7068 14.4716C26.0374 14.1838 26.2682 13.8034 26.5515 13.4688C27.3778 12.4927 29.487 10.4857 32.8603 10.4845C37.3175 10.483 40.9426 14.1428 40.8253 18.5258C40.7111 22.7949 37.2017 26.1561 32.8603 26.1546C30.5546 26.1546 26.7817 24.7113 24.476 26.9794C22.1703 29.2474 21.7483 31.1031 17.3493 31.1031C12.9504 31.1031 9.38428 27.5952 9.38428 23.268Z" stroke="#67C39F" stroke-width="2"/>
</svg>
