<svg width="300" height="96" viewBox="0 0 300 96" fill="none" xmlns="http://www.w3.org/2000/svg">
    <path fill-rule="evenodd" clip-rule="evenodd" d="M30.1507 72C32.0708 73.088 34.3108 73.632 36.8708 73.632C41.7988 73.632 45.8307 72.096 48.9668 69.024C52.1668 65.888 54.4388 62.176 55.7828 57.888C57.1908 53.6 57.8948 49.632 57.8948 45.984C57.8948 42.08 56.9668 38.72 55.1108 35.904C53.2548 33.024 50.4068 31.232 46.5668 30.528C49.6388 28.8 52.0068 26.56 53.6708 23.808C55.3348 21.056 56.1667 18.208 56.1667 15.264C56.1667 12.512 55.3988 9.984 53.8628 7.68C52.3908 5.376 50.1188 3.52 47.0468 2.112C43.9748 0.703995 40.1988 -5.72205e-06 35.7188 -5.72205e-06C29.7668 -5.72205e-06 24.1028 1.216 18.7268 3.648C13.3508 6.016 9.03075 9.152 5.76675 13.056C2.50275 16.96 0.87075 21.088 0.87075 25.44C0.87075 28.576 1.73475 30.848 3.46275 32.256C5.19075 33.6 7.75075 34.272 11.1427 34.272C11.1427 34.144 10.9188 33.632 10.4708 32.736C10.0228 31.776 9.79875 30.112 9.79875 27.744C9.79875 22.752 10.9508 18.496 13.2548 14.976C15.6228 11.456 18.6628 8.832 22.3748 7.10399C26.0868 5.31199 29.8948 4.41599 33.7988 4.41599C38.0868 4.41599 41.2548 5.408 43.3028 7.392C45.4148 9.376 46.4708 11.84 46.4708 14.784C46.4708 17.216 45.8307 19.648 44.5508 22.08C43.2708 24.448 41.5748 26.432 39.4628 28.032C37.3508 29.568 35.0788 30.336 32.6468 30.336H32.0708L36.5827 9.024L22.3748 10.944L9.31875 72H23.1428L31.0148 35.232C32.2308 35.04 33.7028 34.944 35.4308 34.944C41.5107 34.944 44.5508 39.008 44.5508 47.136C44.5508 51.488 43.7508 55.456 42.1508 59.04C40.6148 62.624 38.2467 64.416 35.0468 64.416C33.8948 64.416 32.8068 64.16 31.7828 63.648C30.8228 63.136 29.7668 62.24 28.6148 60.96C27.7828 63.008 27.3668 64.864 27.3668 66.528C27.3668 69.152 28.2948 70.976 30.1507 72ZM71.8747 16.608C73.3467 18.08 75.1387 18.816 77.2507 18.816C79.3627 18.816 81.1547 18.08 82.6267 16.608C84.1628 15.136 84.9307 13.344 84.9307 11.232C84.9307 9.12 84.1628 7.328 82.6267 5.856C81.1547 4.32 79.3627 3.55199 77.2507 3.55199C75.1387 3.55199 73.3467 4.32 71.8747 5.856C70.4027 7.328 69.6667 9.12 69.6667 11.232C69.6667 13.344 70.4027 15.136 71.8747 16.608ZM63.2347 69.696C65.1547 71.616 67.6507 72.576 70.7227 72.576C74.3708 72.576 78.0508 71.36 81.7627 68.928C83.4881 67.7678 85.0683 66.1307 86.5033 64.0164C87.1589 66.0138 88.158 67.651 89.5005 68.928C92.1245 71.36 95.8045 72.576 100.54 72.576C109.126 72.576 116.577 68.6151 122.892 60.6933C122.89 60.8168 122.888 60.9377 122.888 61.056C122.888 64.896 123.816 67.776 125.672 69.696C127.592 71.616 130.088 72.576 133.16 72.576C135.144 72.576 137.096 72.192 139.016 71.424C140.936 70.656 142.824 69.248 144.68 67.2L143.528 72.384C138.984 73.856 135.24 75.68 132.296 77.856C129.352 80.096 127.88 83.04 127.88 86.688C127.88 89.696 128.904 92 130.952 93.6C133 95.2 135.56 96 138.632 96C142.6 96 146.152 94.816 149.288 92.448C152.424 90.144 154.632 85.888 155.912 79.68L157.352 72.768C161.064 71.808 164.392 70.016 167.336 67.392C168.323 66.4914 169.241 65.422 170.091 64.1838C170.747 66.1054 171.727 67.6868 173.032 68.928C175.656 71.36 179.336 72.576 184.072 72.576C192.657 72.576 200.108 68.6151 206.424 60.6933C206.421 60.8168 206.419 60.9377 206.419 61.056C206.419 64.896 207.348 67.776 209.204 69.696C211.124 71.616 213.62 72.576 216.691 72.576C220.34 72.576 224.02 71.36 227.732 68.928C229.457 67.7678 231.037 66.1307 232.472 64.0164C233.128 66.0138 234.127 67.651 235.469 68.928C238.093 71.36 241.773 72.576 246.509 72.576C254.207 72.576 260.993 69.3917 266.866 63.023C267.12 64.1146 267.527 65.1869 268.089 66.24C269.113 68.096 270.681 69.632 272.793 70.848C274.905 72 277.497 72.576 280.569 72.576C283.577 72.576 286.521 72.032 289.401 70.944C292.345 69.856 294.809 68.064 296.793 65.568C298.777 63.072 299.769 59.872 299.769 55.968C299.769 54.24 299.609 51.456 299.289 47.616C298.521 38.08 297.977 29.216 297.657 21.024L283.449 22.944C281.785 28.256 280.025 33.216 278.169 37.824C276.313 42.368 274.137 46.88 271.641 51.36C270.233 52.064 269.049 53.216 268.089 54.816C267.501 55.6987 267.081 56.6764 266.831 57.7493C264.948 59.5806 263.166 61.0348 261.485 62.112C259.053 63.712 256.109 64.512 252.653 64.512C250.221 64.512 248.461 63.968 247.373 62.88C246.285 61.728 245.741 59.584 245.741 56.448C245.741 55.808 245.805 54.528 245.933 52.608C249.773 52.352 253.389 51.328 256.781 49.536C260.173 47.68 262.893 45.248 264.941 42.24C266.989 39.232 268.013 35.936 268.013 32.352C268.013 26.208 264.493 23.136 257.453 23.136C251.437 23.136 246.477 25.088 242.573 28.992C238.669 32.832 235.853 37.408 234.125 42.72C232.397 48.032 231.533 52.896 231.533 57.312C231.533 57.55 231.536 57.7851 231.541 58.0175C230.943 59.1258 230.217 60.1066 229.363 60.96C227.764 62.496 226.036 63.264 224.18 63.264C222.771 63.264 221.747 63.008 221.107 62.496C220.531 61.92 220.243 60.992 220.243 59.712C220.243 58.624 220.372 57.6 220.628 56.64L231.667 4.8L217.46 6.72L207.188 54.816C207.186 54.8256 207.184 54.8352 207.182 54.8448C204.248 58.0943 201.536 60.5167 199.048 62.112C196.616 63.712 193.672 64.512 190.216 64.512C187.784 64.512 186.024 63.968 184.936 62.88C183.848 61.728 183.304 59.584 183.304 56.448C183.304 52.864 183.912 48.832 185.128 44.352C186.344 39.872 187.912 36.064 189.832 32.928C191.752 29.792 193.672 28.224 195.592 28.224C196.488 28.224 197.16 28.576 197.608 29.28C198.056 29.984 198.28 30.944 198.28 32.16C198.28 33.824 197.896 35.712 197.128 37.824C198.28 38.592 199.4 38.976 200.488 38.976C201.96 38.976 203.176 38.368 204.136 37.152C205.096 35.936 205.576 34.208 205.576 31.968C205.576 29.408 204.744 27.296 203.08 25.632C201.48 23.968 198.76 23.136 194.92 23.136C188.968 23.136 184.04 25.088 180.136 28.992C176.296 32.832 173.48 37.408 171.688 42.72C169.96 48.032 169.096 52.896 169.096 57.312C169.096 57.5851 169.099 57.8545 169.106 58.1202C168.084 60.5526 166.918 62.4911 165.608 63.936C163.752 65.984 161.288 67.52 158.216 68.544L167.72 24H153.896L147.176 55.392C146.408 57.76 145.384 59.68 144.104 61.152C142.824 62.56 141.352 63.264 139.688 63.264C137.768 63.264 136.808 61.856 136.808 59.04C136.808 58.208 136.904 57.408 137.096 56.64L144.008 24H130.184L123.656 54.816C123.654 54.8256 123.652 54.8352 123.65 54.8448C120.716 58.0943 118.005 60.5167 115.517 62.112C113.085 63.712 110.141 64.512 106.685 64.512C104.253 64.512 102.493 63.968 101.405 62.88C100.316 61.728 99.7725 59.584 99.7725 56.448C99.7725 52.864 100.381 48.832 101.597 44.352C102.812 39.872 104.381 36.064 106.3 32.928C108.221 29.792 110.141 28.224 112.061 28.224C112.956 28.224 113.629 28.576 114.076 29.28C114.524 29.984 114.749 30.944 114.749 32.16C114.749 33.824 114.365 35.712 113.597 37.824C114.749 38.592 115.868 38.976 116.956 38.976C118.428 38.976 119.645 38.368 120.604 37.152C121.564 35.936 122.045 34.208 122.045 31.968C122.045 29.408 121.213 27.296 119.549 25.632C117.949 23.968 115.229 23.136 111.389 23.136C105.437 23.136 100.508 25.088 96.6045 28.992C92.7645 32.832 89.9485 37.408 88.1565 42.72C86.4285 48.032 85.5645 52.896 85.5645 57.312C85.5645 57.55 85.5672 57.7851 85.5726 58.0175C84.9741 59.1258 84.2481 60.1066 83.3948 60.96C81.7948 62.496 80.0667 63.264 78.2107 63.264C76.8027 63.264 75.7787 63.008 75.1387 62.496C74.5628 61.92 74.2747 60.992 74.2747 59.712C74.2747 58.624 74.4027 57.6 74.6588 56.64L81.5708 24H67.7467L61.2188 54.816C60.7067 57.376 60.4507 59.456 60.4507 61.056C60.4507 64.896 61.3787 67.776 63.2347 69.696ZM139.592 86.304C138.568 87.776 137.512 88.512 136.424 88.512C135.4 88.512 134.6 88.192 134.024 87.552C133.448 86.912 133.16 86.176 133.16 85.344C133.16 82.208 136.296 79.488 142.568 77.184L141.992 79.968C141.416 82.72 140.616 84.832 139.592 86.304ZM253.421 45.504C251.309 47.04 249.069 47.872 246.701 48C247.661 42.88 249.229 38.304 251.405 34.272C253.645 30.24 255.917 28.224 258.221 28.224C259.821 28.224 260.621 29.536 260.621 32.16C260.621 34.784 259.949 37.28 258.605 39.648C257.325 42.016 255.597 43.968 253.421 45.504ZM283.449 62.88C281.849 64.288 279.865 64.992 277.497 64.992C275.449 64.992 273.945 64.448 272.985 63.36C272.089 62.272 271.641 60.576 271.641 58.272C272.025 59.104 272.889 59.52 274.233 59.52C275.449 59.52 276.441 59.04 277.209 58.08C278.041 57.12 278.457 56.032 278.457 54.816C278.457 53.344 277.721 52.224 276.249 51.456C279.897 44.416 282.489 38.368 284.025 33.312C284.217 35.808 284.633 40.704 285.273 48C285.657 51.456 285.849 54.144 285.849 56.064C285.849 59.2 285.049 61.472 283.449 62.88ZM96.2822 14.6191C96.5967 14.1361 96.7539 13.5846 96.7539 12.9648C96.7539 12.2904 96.5853 11.7321 96.248 11.29C95.9154 10.8434 95.3184 10.4264 94.457 10.0391C93.5592 9.62891 93.0078 9.34635 92.8027 9.19141C92.6022 9.03646 92.502 8.861 92.502 8.66504C92.502 8.48275 92.5817 8.33008 92.7412 8.20703C92.9007 8.08398 93.1559 8.02246 93.5068 8.02246C94.1859 8.02246 94.9925 8.23665 95.9268 8.66504L96.7539 6.58008C95.6784 6.10156 94.6234 5.8623 93.5889 5.8623C92.4176 5.8623 91.4971 6.11979 90.8271 6.63477C90.1572 7.14974 89.8223 7.86751 89.8223 8.78809C89.8223 9.28027 89.8997 9.70638 90.0547 10.0664C90.2142 10.4264 90.4557 10.7454 90.7793 11.0234C91.1074 11.3014 91.5973 11.5885 92.249 11.8848C92.9691 12.2083 93.4111 12.4225 93.5752 12.5273C93.7438 12.6322 93.8646 12.737 93.9375 12.8418C94.015 12.9421 94.0537 13.0605 94.0537 13.1973C94.0537 13.416 93.9603 13.596 93.7734 13.7373C93.5866 13.874 93.2926 13.9424 92.8916 13.9424C92.4268 13.9424 91.9163 13.8695 91.3604 13.7236C90.8044 13.5732 90.2689 13.3659 89.7539 13.1016V15.5078C90.2415 15.7402 90.7109 15.9043 91.1621 16C91.6133 16.0911 92.1715 16.1367 92.8369 16.1367C93.6344 16.1367 94.3294 16.0046 94.9219 15.7402C95.5143 15.4714 95.9678 15.0977 96.2822 14.6191ZM98.2988 6.00586V16H101.013V6.00586H98.2988ZM109.154 16H112.695V6.00586H110.289V10.5244C110.289 11.1351 110.321 11.944 110.385 12.9512H110.344L106.707 6.00586H103.18V16H105.572V11.4951C105.572 10.9118 105.529 10.0664 105.442 8.95898H105.504L109.154 16ZM117.802 8.87012C118.162 8.34147 118.663 8.07715 119.306 8.07715C119.729 8.07715 120.126 8.13639 120.495 8.25488C120.864 8.37337 121.233 8.51921 121.603 8.69238L122.43 6.56641C121.445 6.09701 120.413 5.8623 119.333 5.8623C118.344 5.8623 117.483 6.07422 116.749 6.49805C116.02 6.91732 115.459 7.51888 115.067 8.30273C114.68 9.08659 114.486 9.99577 114.486 11.0303C114.486 12.6846 114.887 13.9492 115.689 14.8242C116.496 15.6992 117.654 16.1367 119.162 16.1367C120.215 16.1367 121.158 15.9521 121.992 15.583V13.2998C121.573 13.473 121.156 13.6211 120.741 13.7441C120.326 13.8672 119.898 13.9287 119.456 13.9287C117.993 13.9287 117.262 12.9671 117.262 11.0439C117.262 10.1188 117.442 9.39421 117.802 8.87012ZM123.947 16H129.881V13.7988H126.647V11.9121H129.642V9.74512H126.647V8.17285H129.881V6.00586H123.947V16ZM137.886 16H140.627V6.00586H138.193L134.762 8.80176L136.163 10.5244L137.298 9.58789C137.549 9.36458 137.758 9.15039 137.927 8.94531C137.899 9.47852 137.886 10.0664 137.886 10.709V16ZM148.871 14.8242C149.714 13.9492 150.136 12.5342 150.136 10.5791C150.136 9.08431 149.801 7.93131 149.131 7.12012C148.461 6.30892 147.515 5.90332 146.294 5.90332C145.196 5.90332 144.33 6.21777 143.696 6.84668C143.067 7.47559 142.753 8.34375 142.753 9.45117C142.753 10.4674 142.997 11.265 143.484 11.8438C143.972 12.4225 144.649 12.7119 145.515 12.7119C145.888 12.7119 146.201 12.6732 146.451 12.5957C146.702 12.5182 146.914 12.4066 147.087 12.2607C147.26 12.1149 147.436 11.8779 147.613 11.5498H147.695C147.65 12.4111 147.365 13.0423 146.841 13.4434C146.317 13.8398 145.572 14.0381 144.605 14.0381C144.214 14.0381 143.822 14.0016 143.43 13.9287V16.0684C143.749 16.1139 144.214 16.1367 144.824 16.1367C146.679 16.1367 148.028 15.6992 148.871 14.8242ZM145.645 8.38477C145.831 8.17057 146.073 8.06348 146.369 8.06348C146.679 8.06348 146.934 8.20931 147.135 8.50098C147.34 8.79264 147.442 9.14128 147.442 9.54688C147.442 9.84766 147.333 10.1051 147.114 10.3193C146.896 10.5335 146.638 10.6406 146.342 10.6406C146.014 10.6406 145.77 10.5312 145.61 10.3125C145.451 10.0892 145.371 9.79069 145.371 9.41699C145.371 8.94303 145.462 8.59896 145.645 8.38477ZM151.011 16H158.264V13.7715H154.483V13.7031C155.591 12.7096 156.313 12.0352 156.65 11.6797C156.992 11.3242 157.266 10.987 157.471 10.668C157.676 10.3444 157.826 10.0163 157.922 9.68359C158.022 9.35091 158.072 8.98861 158.072 8.59668C158.072 8.07259 157.931 7.60091 157.648 7.18164C157.37 6.75781 156.976 6.43197 156.466 6.2041C155.96 5.97624 155.383 5.8623 154.736 5.8623C154.221 5.8623 153.757 5.91471 153.342 6.01953C152.932 6.12435 152.551 6.27702 152.2 6.47754C151.849 6.6735 151.416 7.00163 150.901 7.46191L152.385 9.19824C152.79 8.84733 153.153 8.58301 153.472 8.40527C153.795 8.22298 154.114 8.13184 154.429 8.13184C154.734 8.13184 154.971 8.20703 155.14 8.35742C155.308 8.50781 155.393 8.71289 155.393 8.97266C155.393 9.18229 155.349 9.38281 155.263 9.57422C155.181 9.76562 155.033 9.99577 154.818 10.2646C154.604 10.529 154.148 11.0257 153.451 11.7549L151.011 14.2227V16ZM159.87 8.3916C159.474 9.25293 159.275 10.3809 159.275 11.7754C159.275 13.1517 159.608 14.2227 160.273 14.9883C160.939 15.7539 161.862 16.1367 163.042 16.1367C164.154 16.1367 165.02 15.82 165.64 15.1865C166.259 14.5485 166.569 13.6803 166.569 12.582C166.569 11.5612 166.323 10.766 165.831 10.1963C165.343 9.62207 164.655 9.33496 163.767 9.33496C162.86 9.33496 162.201 9.72233 161.791 10.4971H161.709C161.75 9.59928 161.992 8.95215 162.434 8.55566C162.876 8.15918 163.548 7.96094 164.45 7.96094C164.983 7.96094 165.478 8.00423 165.934 8.09082V5.97852C165.391 5.90104 164.917 5.8623 164.512 5.8623C163.372 5.8623 162.413 6.06738 161.634 6.47754C160.859 6.8877 160.271 7.52572 159.87 8.3916ZM163.678 13.6758C163.5 13.89 163.268 13.9971 162.98 13.9971C162.675 13.9971 162.429 13.8581 162.242 13.5801C162.055 13.2975 161.962 12.9375 161.962 12.5C161.962 12.1992 162.058 11.944 162.249 11.7344C162.445 11.5247 162.698 11.4199 163.008 11.4199C163.637 11.4199 163.951 11.8255 163.951 12.6367C163.951 13.1107 163.86 13.457 163.678 13.6758Z" fill="#F7F7F7"/>
</svg>
