<svg width="216" height="235" viewBox="0 0 216 235" fill="none" xmlns="http://www.w3.org/2000/svg">
    <path d="M6.20001 198C2.10001 195.5 -0.399988 189.9 0.300012 184.7C1.40001 176.5 7.40001 171.7 15.7 172.3C21.8 172.7 25 175 25 179C25 183.8 20.2 184 18.1 179.3C17.1 177.1 16.5 176.8 13.7 177.4C6.30001 178.8 3.70001 186.8 8.90001 192.1C12.3 195.4 15.8 195.8 20.1 193.3C22.8 191.7 23.1 191.7 24.7 193.3C26.3 194.9 26.3 195.1 24.2 197.2C21 200.4 10.8 200.9 6.20001 198Z" fill="#F7F7F7"/>
    <path d="M36.9 198.3C32.9 195.8 31 191.9 31 185.7C31 181.7 31.5 179.6 33.1 177.6C39.7 169.2 53.1 170.4 57.2 179.8C60.5 187.1 58.1 195.3 51.9 198.6C48.2 200.5 40.1 200.4 36.9 198.3ZM49.8 193C54.2 188.9 53.8 182.4 48.9 178.7C45.2 176 40.5 177.1 37.9 181.3C32.8 189.5 42.9 199.4 49.8 193Z" fill="#F7F7F7"/>
    <path d="M63 197.5C63 196.1 63.6 195 64.4 195C65.3 195 65.9 193.2 66.4 189.8C67.4 180.8 67.2 177 65.5 177C64.6 177 64 176.1 64 174.5C64 172.3 64.4 172 68 172C71.6 172 72.1 172.3 74 176.1C75.2 178.3 76.9 181.5 77.9 183.1L79.8 186.2L83.6 179.1C87.3 172.2 87.5 172 91.2 172C94.6 172 95 172.3 95 174.5C95 176.2 94.4 177 93.4 177C91.9 177 91.8 177.9 92.4 183.1C92.7 186.5 93 190.6 93 192.1C93 194 93.5 195 94.5 195C95.4 195 96 195.9 96 197.5C96 199.9 95.7 200 90 200C84.3 200 84 199.9 84 197.5C84 195.9 84.6 195 85.5 195C86.6 195 87 193.8 87 190C87 187.3 86.8 185 86.6 185C86.3 185 84.9 187.3 83.4 190C81.9 192.8 80.2 195 79.5 195C78.8 195 77.1 192.8 75.6 190C74.1 187.3 72.7 185 72.4 185C72.2 185 72 187.3 72 190C72 193.8 72.4 195 73.5 195C74.4 195 75 195.9 75 197.5C75 199.9 74.7 200 69 200C63.3 200 63 199.9 63 197.5Z" fill="#F7F7F7"/>
    <path d="M102 197.5C102 195.9 102.6 195 103.5 195C104.7 195 105 193.3 105 186C105 178.7 104.7 177 103.5 177C102.6 177 102 176.1 102 174.5C102 172.1 102.3 172 107.8 172C119.1 172 124 175 124 181.8C124 186.5 119.4 191 114.6 191C111.7 191 111 191.4 111 193C111 194.1 111.7 195 112.5 195C113.4 195 114 195.9 114 197.5C114 199.9 113.7 200 108 200C102.3 200 102 199.9 102 197.5ZM116.8 184.8C119.4 182.2 117.9 179 113.3 177.6C111.1 176.9 111 177.2 111 181.4C111 185.5 111.2 186 113.3 186C114.6 186 116.1 185.5 116.8 184.8Z" fill="#F7F7F7"/>
    <path d="M126 197.9C126 196.7 126.6 195.2 127.3 194.6C129.5 192.8 134.6 177.7 133.2 177.2C132.5 177 132 175.7 132 174.4C132 172.1 132.2 172 140 172C147.9 172 148 172 148 174.5C148 176 147.4 177 146.5 177C145.4 177 145.8 178.9 148.3 186C150 191 152 195 152.7 195C153.4 195 154 196.1 154 197.5C154 199.9 153.7 200 148.5 200C143.4 200 143 199.8 143 197.6C143 196.3 143.5 195 144.2 194.8C144.8 194.6 145 193.8 144.6 193.2C143.5 191.4 135.3 191.7 134.6 193.5C134.3 194.4 134.6 195 135.5 195C136.4 195 137 196 137 197.5C137 199.9 136.7 200 131.5 200C126.5 200 126 199.8 126 197.9ZM142 186.1C142 185.7 141.5 183.8 140.8 181.9L139.7 178.6L138.4 182C136.7 186.9 136.7 187 139.5 187C140.9 187 142 186.6 142 186.1Z" fill="#F7F7F7"/>
    <path d="M158 197.5C158 195.9 158.6 195 159.5 195C160.7 195 161 193.3 161 186C161 178.7 160.7 177 159.5 177C158.6 177 158 176.1 158 174.5C158 172.3 158.4 172 161.9 172C165.5 172 166.1 172.5 171.5 179.5C174.6 183.6 177.4 187 177.6 187C177.8 187 178 184.8 178 182C178 178.2 177.6 177 176.5 177C175.6 177 175 176.1 175 174.5C175 172.1 175.3 172 180.5 172C185.7 172 186 172.1 186 174.5C186 176.1 185.4 177 184.5 177C183.3 177 183 178.9 183 188.5C183 198.8 182.8 200 181.3 200C180.3 199.9 177.6 197.4 175.2 194.2C172.8 191.1 169.8 187.2 168.5 185.5L166 182.5V188.8C166 194.3 166.2 195 168 195C169.5 195 170 195.7 170 197.5C170 199.9 169.7 200 164 200C158.3 200 158 199.9 158 197.5Z" fill="#F7F7F7"/>
    <path d="M197 197.5C197 195.9 197.6 195 198.5 195C201.3 195 200.2 189.3 196.3 183C194.2 179.7 191.9 177 191.3 177C190.6 177 190 175.9 190 174.5C190 172.1 190.3 172 195.5 172C200.7 172 201 172.1 201 174.5C201 175.9 200.6 177 200 177C199.5 177 200 178.6 201.2 180.6L203.3 184.2L205.1 180.9C206 179 206.4 177.4 205.9 177.2C205.4 177 205 175.7 205 174.4C205 172.2 205.4 172 210.5 172C215.7 172 216 172.1 216 174.5C216 175.9 215.4 177 214.8 177C214.1 177 211.8 179.9 209.8 183.5C205.8 190.2 204.9 195 207.5 195C208.4 195 209 195.9 209 197.5C209 199.9 208.7 200 203 200C197.3 200 197 199.9 197 197.5Z" fill="#F7F7F7"/>
    <path d="M63 164.8C59.7 163.1 57.9 161.3 56.3 158C49.9 145.5 58.8 132.2 72.8 133.3C79.4 133.8 83.4 136.5 83.8 140.8C84 143.1 83.6 144.2 82.1 145C79.4 146.4 76 144.7 76 142.1C76 137.7 68.9 137.9 64.4 142.4C59.8 147 59.6 152.8 63.9 157C68 161.1 71.1 161.6 76.5 159C80.9 156.9 81.2 156.8 83.1 158.6C85 160.3 85 160.4 82.8 162.7C78.5 167.3 69.8 168.2 63 164.8Z" fill="#F7F7F7"/>
    <path d="M134.6 166C128.1 164 124 157.7 124 149.7C124 143.8 126.3 139.3 131.2 135.7C135 132.8 143.7 132.3 148.4 134.5C155.7 138 155.4 147.2 148.1 145.3C146.3 144.8 145.8 143.8 146.1 141.4C146.2 140.2 143.6 139 141 139C136.8 139 132.2 142.5 130.9 146.8C129.4 151.9 131.7 157.2 136.5 159.4C140.8 161.5 141.8 161.4 146.4 158.9C150.3 156.9 150.3 156.8 152.3 158.8C154.7 161.3 153.9 162.7 148.6 165.1C144.2 167.1 139.3 167.4 134.6 166Z" fill="#F7F7F7"/>
    <path d="M0 163C0 160.7 0.4 160 2 160C3.9 160 4 159.3 4 149.5C4 139.7 3.9 139 2 139C0.5 139 0 138.3 0 136.5V134H10C19.4 134 20.3 134.2 22.5 136.5C25.6 139.5 25.9 145.1 23.2 147.8C21.5 149.5 21.5 149.7 23.7 151.4C27.1 153.9 26.8 159.3 23.1 163.1C20.2 165.9 19.9 166 10.1 166H0V163ZM18.8 156.8C19.1 154.6 18.6 153.8 16.5 153C11.3 151 10 151.6 10 156.1V160.1L14.3 159.8C18.1 159.5 18.5 159.2 18.8 156.8ZM16.8 145.8C19.7 142.9 17 139 12.1 139C10.3 139 10 139.6 10 143C10 146.7 10.2 147 12.8 147C14.3 147 16.1 146.5 16.8 145.8Z" fill="#F7F7F7"/>
    <path d="M34 163C34 161 34.5 160 35.5 160C36.7 160 37 158.2 37 149.5C37 140.8 36.7 139 35.5 139C34.6 139 34 138.1 34 136.5C34 134.1 34.2 134 41 134C47.8 134 48 134.1 48 136.5C48 138.3 47.5 139 46 139C44.1 139 44 139.7 44 149.5C44 159.3 44.1 160 46 160C47.6 160 48 160.7 48 163V166H41H34V163Z" fill="#F7F7F7"/>
    <path d="M97 163C97 160.7 97.4 160 99 160C100.6 160 101 159.3 101 156.8C101 152.7 93.1 139 90.8 139C89.6 139 89 138.2 89 136.5C89 134.1 89.2 134 95.5 134C101.8 134 102 134.1 102 136.5C102 137.9 101.5 139 100.9 139C100.4 139 100.9 140.8 102.1 143C103.4 145.2 104.7 147 105 147C106.3 147 109.2 139.6 108.1 139.2C107.5 139 107 137.7 107 136.4C107 134.1 107.3 134 113.5 134C119.8 134 120 134.1 120 136.5C120 138 119.4 139 118.6 139C117.8 139 115.1 142.4 112.6 146.5C107.5 154.8 106.5 160 110 160C111.6 160 112 160.7 112 163V166H104.5H97V163Z" fill="#F7F7F7"/>
    <path d="M161 163C161 160.7 161.4 160 163 160C164.9 160 165 159.3 165 149.5C165 139.7 164.9 139 163 139C161.5 139 161 138.3 161 136.5C161 134.1 161.2 134 168 134C174.8 134 175 134.1 175 136.5C175 138.3 174.5 139 173 139C171.1 139 171 139.7 171 149.5V160H175C178.3 160 179 159.7 179 158C179 156.4 179.7 156 182 156C184.9 156 185 156.1 185 161V166H173H161V163Z" fill="#F7F7F7"/>
    <path d="M191 163C191 160.7 191.4 160 193 160C194.9 160 195 159.3 195 149.5C195 139.7 194.9 139 193 139C191.5 139 191 138.3 191 136.5V134H203.5H216V139C216 143.9 215.9 144 213 144C210.5 144 210 143.6 210 141.5C210 139.2 209.6 139 205.5 139H201V143V147H206C210.7 147 211 147.2 211 149.5C211 151.8 210.7 152 206 152H201V156V160H205.5C209.3 160 210 159.7 210 158C210 156.4 210.7 156 213 156C215.9 156 216 156.1 216 161V166H203.5H191V163Z" fill="#F7F7F7"/>
    <path d="M29.2 125.2C21.7 122.5 13.4 116.5 8.79997 110.4C-4.60003 92.7 -2.20003 66.3 14 51.7C21.5 45.1 29.9 41.7 40.4 41.2C45.9 40.9 51.4 41.3 54.9 42.1C58 42.8 60.9 43.4 61.3 43.5C61.7 43.5 64.3 39.7 66.9 35.1L71.8 26.7L69.8 21.9C67.8 17.2 67.7 17.1 62.2 16.4C53.4 15.3 48.4 8.89997 52.3 3.59997C53.2 2.39997 55.7 1.59997 60 1.09997C68.2 -3.04322e-05 92.6 1.19997 94.1 2.69997C94.7 3.29997 95 4.79997 94.8 6.09997C94.5 8.29997 94 8.49997 88 8.79997C83 8.99997 80.8 9.69997 78.3 11.6C74.5 14.5 74.4 15 76.8 20.7L78.5 25H113.3C132.4 25 148 24.7 148 24.3C148 24 147.3 21.3 146.4 18.5C145.4 15.6 145 12.1 145.4 10.7C146.3 7.09997 155.1 2.89997 163.2 2.29997C168.7 1.89997 170 2.09997 173 4.19997C179.7 8.79997 180.3 18.5 174.3 24.2C167.4 30.6 161 30.7 161 24.4C161 23.7 162.8 22.1 164.9 21C167.7 19.6 169.2 18.1 170 15.5C171.6 10.7 170.1 8.99997 164.6 8.99997C160.5 8.99997 152 12.2 152.1 13.7C152.1 14.1 154.2 20.5 156.8 27.8L161.5 41.1L173 41.3C183.6 41.5 185 41.8 191 44.6C207.8 52.6 217 68.5 215.7 87C214.8 100.9 208.2 112.3 196.9 119.9C188.4 125.6 182 127.3 170.7 126.8C158.3 126.2 151.8 123.6 143.5 115.8C126.7 100.1 124.5 76.7 138 57.8C140.2 54.7 144.4 50.6 147.7 48.4C150.9 46.3 153.9 44.3 154.3 43.9C154.8 43.6 154.4 41.6 153.6 39.5L152 35.7L134 59.9L116 84.1L117.7 88.9C119.1 93 119.2 94.4 118.2 97.7C116.7 102.6 112.8 106.7 108.6 107.8C105.3 108.7 103.4 113 106.3 113C108.3 113 109.3 115.9 107.9 117.7C107 118.7 104.8 119 100.1 118.8C93.8 118.5 93.5 118.4 93.5 116C93.5 114.2 94.1 113.4 95.8 113.2C97.5 112.9 98 112.2 98 110C98 107.3 97.5 106.9 91.4 105C87.8 103.9 84.3 103 83.6 103C83 103 81.6 104.6 80.5 106.6C77.4 112.4 66.9 121.5 60.3 124.1C52.1 127.3 36.6 127.8 29.2 125.2ZM52.6 116.5C59.4 114.5 66.2 109.8 70.3 104.2L73.8 99.6L60.1 95.3C52.6 92.9 45.2 91 43.7 91C40.7 91 36 87.1 36 84.6C36 81.5 38.4 77.9 40.9 77.3C43 76.9 44.8 74.5 50 65.2C53.6 58.8 56.6 53.3 56.8 52.9C57.5 51.4 47.6 49.8 40.7 50.2C31.6 50.8 25.2 53.9 18.7 60.9C11.9 68.1 9.69997 73.7 9.59997 83.5C9.49997 90.1 9.89997 92.4 12.1 97C19.7 113.2 36.5 121.3 52.6 116.5ZM187.4 114.1C208 104 213.1 78.2 197.8 61.5C190.5 53.5 184.7 50.8 173.8 50.2C168.8 50 165 50.2 165 50.7C165 53.9 174.3 77.2 176.4 79.4C179.5 82.4 179.7 85.3 177 88C174.8 90.2 171.9 90.6 168.9 89C167.4 88.2 167 86.9 167 83C167 78.8 164.8 71.3 158.5 54.2C157.3 51 146.1 61 142.2 68.7C134.8 83.2 139.5 102.2 152.9 111.4C163.6 118.9 175.8 119.8 187.4 114.1ZM90.2 98C89.9 95.6 89.3 95 87.4 95C86.1 95 85 95.4 85 95.9C85 96.4 84.7 97.5 84.4 98.3C83.9 99.8 85.4 100.6 89.1 100.9C90.3 101 90.5 100.3 90.2 98ZM75.5 94.9C75.9 94.3 75.9 93.6 75.6 93.3C75 92.7 54.4 89 52.5 89.1C51.1 89.2 71.1 95.8 73.2 95.9C74.1 96 75.2 95.5 75.5 94.9ZM92.3 85.5C93.6 83.7 93.7 83 92.8 83C92.1 83 90.5 82.7 89.3 82.4C87.3 81.8 87 82.1 87 84.9C87 88.8 89.7 89.1 92.3 85.5ZM77.5 84C77.5 82.8 75.5 82.5 66.5 82.3L55.5 82.2L65 84C75.9 86 77.5 86 77.5 84ZM93.7 78.8C89.9 69 75.6 36 75.1 36C74.7 36 73 38.7 71.2 41.9L67.9 47.9L71.5 50.5C77.9 55.5 84 66.3 86.4 77.3C87 79.6 87.5 80 90.6 80C93.1 80 94.1 79.6 93.7 78.8ZM76.6 76.3C75.3 71 71.1 63.5 67.2 59.7L63.3 55.9L57.2 66.6C53.9 72.6 51.4 77.8 51.6 78.2C51.9 78.6 57.8 79 64.7 79H77.2L76.6 76.3ZM103.3 77C103.7 75.5 103.3 75 101.9 75C99.8 75 99.7 75.1 100.6 77.4C101.4 79.6 102.7 79.4 103.3 77ZM113 75.9C113 75.4 112.3 75 111.5 75C110.6 75 110 75.9 110 77.1C110 78.9 110.2 79 111.5 78C112.3 77.3 113 76.4 113 75.9ZM107.4 69.2C113.5 68.9 114.2 69.1 114.7 71C115.1 72.6 118.4 68.8 130.7 52.4C139.2 41.1 146 31.6 145.7 31.4C145.5 31.2 130.9 31.1 113.3 31.2L81.4 31.5L90.4 52.8C97.2 68.8 99.6 73.6 100 71.8C100.5 69.7 101.2 69.5 107.4 69.2Z" fill="#F7F7F7"/>
    <path d="M70.8598 214.704L70.9558 213.96C70.9558 213.224 70.6678 212.752 70.0918 212.544C69.6438 212.4 69.2998 212.328 69.0598 212.328H69.0358C68.5558 212.328 68.1398 212.408 67.7878 212.568C67.4358 212.712 67.1798 212.896 67.0198 213.12C66.6838 213.584 66.4918 214.072 66.4438 214.584C66.4438 215.192 66.7158 215.72 67.2598 216.168C67.8038 216.6 68.4598 216.984 69.2278 217.32C70.0118 217.64 70.7878 217.992 71.5558 218.376C72.3398 218.76 73.0038 219.312 73.5478 220.032C74.0918 220.752 74.3638 221.616 74.3638 222.624C74.3638 224.592 73.7398 226.064 72.4918 227.04C71.2598 228.016 69.8518 228.504 68.2678 228.504C66.6998 228.504 65.3958 228.152 64.3558 227.448C63.3318 226.728 62.8198 225.768 62.8198 224.568V224.544C62.8198 223.952 62.9078 223.44 63.0838 223.008C63.2758 222.56 63.4998 222.232 63.7558 222.024C64.2838 221.592 64.7638 221.36 65.1958 221.328L65.4838 221.304C65.9318 221.304 66.3398 221.416 66.7078 221.64C67.0758 221.848 67.2598 222.144 67.2598 222.528C67.2598 222.72 67.1558 222.88 66.9478 223.008C66.7398 223.136 66.5558 223.328 66.3958 223.584C66.2518 223.84 66.1718 224.056 66.1558 224.232L66.1078 224.496C66.1078 225.472 66.5558 226.12 67.4518 226.44C67.7718 226.552 68.0278 226.608 68.2198 226.608C69.0998 226.608 69.8038 226.344 70.3318 225.816C70.8758 225.288 71.1478 224.616 71.1478 223.8C71.1478 222.824 70.7318 222.032 69.8998 221.424C69.2758 220.976 68.5958 220.6 67.8598 220.296C67.1398 219.992 66.6518 219.776 66.3958 219.648C66.1398 219.52 65.8678 219.368 65.5798 219.192C65.2918 219.016 64.9718 218.768 64.6198 218.448C63.8518 217.776 63.4678 216.872 63.4678 215.736C63.4678 214.584 63.7798 213.616 64.4038 212.832C65.5238 211.408 67.2038 210.696 69.4438 210.696C70.6278 210.696 71.6278 210.928 72.4438 211.392C73.2598 211.84 73.6678 212.464 73.6678 213.264C73.6678 213.84 73.4998 214.32 73.1638 214.704C72.8438 215.088 72.4278 215.28 71.9158 215.28C71.6758 215.28 71.4358 215.232 71.1958 215.136C70.9718 215.04 70.8598 214.896 70.8598 214.704ZM77.9342 215.16L77.3582 215.136C76.9262 215.136 76.6462 215.24 76.5182 215.448C76.4862 215.496 76.4462 215.52 76.3982 215.52C76.1902 215.52 76.0862 215.168 76.0862 214.464C76.0862 213.744 76.1902 213.288 76.3982 213.096C76.6222 212.904 76.9982 212.808 77.5262 212.808C78.0702 212.808 78.4382 212.904 78.6302 213.096C78.8222 213.272 78.9182 213.576 78.9182 214.008C78.9182 214.44 78.8462 214.744 78.7022 214.92C78.5582 215.08 78.3022 215.16 77.9342 215.16ZM76.0142 227.28L76.2782 221.688C76.2782 220.36 76.1262 219.456 75.8222 218.976C75.7262 218.816 75.6142 218.696 75.4862 218.616C75.3902 218.584 75.3422 218.52 75.3422 218.424C75.3422 218.136 75.7502 217.856 76.5662 217.584C77.3822 217.312 77.9742 217.176 78.3422 217.176C78.7262 217.176 78.9262 217.272 78.9422 217.464C78.9422 217.784 78.8942 218.696 78.7982 220.2C78.7182 221.688 78.6782 223.256 78.6782 224.904C78.6782 226.552 78.7742 227.576 78.9662 227.976C79.0142 228.056 79.0382 228.136 79.0382 228.216C79.0382 228.424 78.7342 228.528 78.1262 228.528C77.5182 228.528 76.8942 228.368 76.2542 228.048C76.0942 227.968 76.0142 227.712 76.0142 227.28ZM80.5013 228.168C80.7893 226.44 80.9333 224.368 80.9333 221.952C80.9333 219.536 80.8613 217.968 80.7173 217.248C80.7173 217.04 80.9573 216.936 81.4373 216.936C82.1733 216.936 82.6613 217.216 82.9013 217.776C82.9173 217.824 82.9573 217.848 83.0213 217.848C83.0853 217.848 83.1333 217.832 83.1653 217.8C83.6613 217.288 84.4293 217.032 85.4693 217.032C86.5093 217.032 87.3333 217.296 87.9413 217.824C88.5493 218.352 88.8533 219.12 88.8533 220.128C88.8533 220.736 88.7973 221.6 88.6853 222.72C88.5893 223.84 88.5413 224.672 88.5413 225.216C88.5413 226.512 88.7573 227.448 89.1893 228.024C89.2533 228.104 89.2853 228.184 89.2853 228.264C89.2853 228.472 89.0613 228.576 88.6133 228.576C86.6293 228.576 85.6373 227.696 85.6373 225.936C85.6373 225.264 85.7893 224.328 86.0933 223.128C86.3973 221.928 86.5493 221.016 86.5493 220.392C86.5493 219.112 86.0213 218.472 84.9653 218.472C84.4533 218.472 84.0613 218.624 83.7893 218.928C83.5333 219.232 83.3893 219.584 83.3573 219.984C83.3253 220.368 83.3092 221.104 83.3092 222.192C83.3092 223.856 83.3653 225.304 83.4773 226.536L83.5253 227.064C83.5253 227.512 83.2293 227.856 82.6373 228.096C82.0613 228.352 81.5573 228.48 81.1253 228.48C80.7093 228.48 80.5013 228.376 80.5013 228.168ZM97.9352 225.24C97.9352 226.152 97.5672 226.912 96.8312 227.52C96.1112 228.112 95.2472 228.408 94.2392 228.408C92.7672 228.408 91.6872 227.968 90.9992 227.088C90.3112 226.192 89.9672 224.984 89.9672 223.464C89.9672 221.848 90.3272 220.416 91.0472 219.168C91.3992 218.528 91.9032 218.024 92.5592 217.656C93.2152 217.288 93.9832 217.104 94.8632 217.104C96.1912 217.104 97.1272 217.552 97.6712 218.448C97.8952 218.816 98.0072 219.248 98.0072 219.744C98.0072 220.512 97.6872 221.088 97.0472 221.472C96.7912 221.616 96.5512 221.688 96.3272 221.688C96.1192 221.688 95.9432 221.68 95.7992 221.664C95.6712 221.632 95.4952 221.52 95.2712 221.328C95.0472 221.136 94.9352 220.872 94.9352 220.536C94.9512 220.36 95.0872 220.216 95.3432 220.104C95.5832 219.96 95.7032 219.704 95.7032 219.336C95.7032 218.712 95.3192 218.4 94.5512 218.4C94.3592 218.4 94.1272 218.488 93.8552 218.664C93.5992 218.824 93.3832 219.04 93.2072 219.312C93.0312 219.568 92.8632 219.984 92.7032 220.56C92.5592 221.12 92.4872 221.664 92.4872 222.192C92.4872 222.704 92.5032 223.096 92.5352 223.368C92.5832 223.624 92.6712 223.984 92.7992 224.448C92.9432 224.896 93.1992 225.264 93.5672 225.552C93.9512 225.84 94.4232 225.984 94.9832 225.984C95.6552 225.984 96.2472 225.704 96.7592 225.144C96.9672 224.92 97.1352 224.648 97.2632 224.328C97.3272 224.2 97.4072 224.136 97.5032 224.136C97.6472 224.136 97.7512 224.272 97.8152 224.544C97.8952 224.8 97.9352 225.032 97.9352 225.24ZM101.484 221.904L101.508 222.504C101.508 222.6 101.572 222.648 101.7 222.648C102.212 222.6 102.66 222.472 103.044 222.264C103.428 222.04 103.716 221.792 103.908 221.52C104.292 220.928 104.5 220.416 104.532 219.984L104.556 219.696C104.556 218.832 104.212 218.4 103.524 218.4C103.012 218.4 102.596 218.624 102.276 219.072C101.748 219.776 101.484 220.72 101.484 221.904ZM106.716 225.096C106.716 225.704 106.588 226.24 106.332 226.704C106.092 227.152 105.812 227.488 105.492 227.712C105.188 227.92 104.828 228.088 104.412 228.216C103.884 228.376 103.38 228.456 102.9 228.456C101.556 228.456 100.564 227.952 99.9244 226.944C99.2844 225.936 98.9644 224.656 98.9644 223.104C98.9644 221.536 99.3564 220.144 100.14 218.928C100.94 217.712 102.132 217.104 103.716 217.104C105.156 217.104 106.132 217.608 106.644 218.616C106.852 219 106.956 219.368 106.956 219.72C106.956 220.056 106.94 220.328 106.908 220.536C106.876 220.728 106.764 221.024 106.572 221.424C106.38 221.824 106.124 222.184 105.804 222.504C105.484 222.824 104.98 223.128 104.292 223.416C103.604 223.704 102.796 223.896 101.868 223.992C101.74 223.992 101.676 224.048 101.676 224.16C101.676 224.304 101.724 224.52 101.82 224.808C101.932 225.08 102.052 225.312 102.18 225.504C102.532 225.952 103.052 226.176 103.74 226.176C104.428 226.176 105.012 225.952 105.492 225.504C105.748 225.264 105.956 224.968 106.116 224.616C106.18 224.488 106.26 224.424 106.356 224.424C106.468 224.424 106.556 224.512 106.62 224.688C106.684 224.864 106.716 225 106.716 225.096ZM116.721 217.872L116.841 225.768C116.841 226.536 116.833 227.024 116.817 227.232C116.801 227.616 116.481 227.896 115.857 228.072C115.233 228.264 114.681 228.36 114.201 228.36C113.721 228.36 113.481 228.24 113.481 228C113.481 227.872 113.521 227.44 113.601 226.704C113.889 224.4 114.033 221.88 114.033 219.144L113.937 215.472C113.841 214.64 113.401 214.224 112.617 214.224L112.137 214.272C111.865 214.272 111.729 214.184 111.729 214.008C111.729 213.608 112.393 212.96 113.721 212.064C115.065 211.168 116.009 210.72 116.553 210.72C116.809 210.72 116.937 210.888 116.937 211.224C116.937 211.544 116.897 212.392 116.817 213.768C116.753 215.144 116.721 216.512 116.721 217.872ZM122.132 217.608C122.244 218.072 122.468 218.496 122.804 218.88C123.14 219.264 123.564 219.456 124.076 219.456C124.604 219.456 125.036 219.248 125.372 218.832C125.932 218.16 126.212 217.24 126.212 216.072C126.212 215.528 126.14 214.936 125.996 214.296C125.676 213.016 125.036 212.376 124.076 212.376C123.612 212.376 123.22 212.544 122.9 212.88C122.58 213.2 122.364 213.608 122.252 214.104C122.06 214.872 121.964 215.528 121.964 216.072C121.964 216.616 122.02 217.128 122.132 217.608ZM118.916 216.816C118.916 214.64 119.532 213.008 120.764 211.92C121.692 211.136 122.676 210.744 123.716 210.744C124.772 210.744 125.644 210.88 126.332 211.152C127.02 211.424 127.556 211.776 127.94 212.208C128.34 212.624 128.652 213.168 128.876 213.84C129.228 214.912 129.404 216.328 129.404 218.088C129.404 224.92 127.364 228.336 123.284 228.336C122.596 228.336 121.876 228.224 121.124 228C119.636 227.552 118.892 226.6 118.892 225.144C118.892 223.688 119.548 222.96 120.86 222.96C121.196 222.96 121.492 223.08 121.748 223.32C122.02 223.544 122.156 223.776 122.156 224.016C122.156 224.256 122.068 224.512 121.892 224.784C121.732 225.056 121.652 225.272 121.652 225.432C121.652 226.408 122.196 226.896 123.284 226.896H123.308C125.244 226.896 126.212 224.728 126.212 220.392C126.196 220.264 126.148 220.2 126.068 220.2C126.052 220.2 126.012 220.216 125.948 220.248C125.756 220.472 125.38 220.696 124.82 220.92C124.26 221.128 123.692 221.232 123.116 221.232C121.82 221.232 120.796 220.8 120.044 219.936C119.292 219.056 118.916 218.016 118.916 216.816ZM136.784 228.24L132.968 228.024C132.056 228.024 131.312 228.152 130.736 228.408C130.624 228.456 130.528 228.48 130.448 228.48C130.24 228.48 130.136 228.216 130.136 227.688C130.136 227.144 130.288 226.504 130.592 225.768C130.896 225.016 131.264 224.32 131.696 223.68C132.608 222.288 133.4 221.232 134.072 220.512L134.528 220.032C135.408 219.088 136.112 218.16 136.64 217.248C137.184 216.336 137.456 215.344 137.456 214.272C137.456 213.264 137.064 212.624 136.28 212.352C136.104 212.288 135.856 212.256 135.536 212.256C135.216 212.24 134.912 212.296 134.624 212.424C134.336 212.552 134.12 212.712 133.976 212.904C133.704 213.304 133.56 213.672 133.544 214.008C133.512 214.584 133.64 214.968 133.928 215.16L134.048 215.256C134.384 215.4 134.552 215.616 134.552 215.904V215.928C134.552 216.36 134.424 216.704 134.168 216.96C133.912 217.2 133.656 217.336 133.4 217.368L132.992 217.416C132.512 217.416 132.104 217.328 131.768 217.152C131.448 216.976 131.224 216.752 131.096 216.48C130.856 216 130.736 215.52 130.736 215.04C130.736 213.68 131.248 212.616 132.272 211.848C133.312 211.08 134.496 210.696 135.824 210.696C137.152 210.696 138.272 211.04 139.184 211.728C140.096 212.416 140.552 213.376 140.552 214.608C140.552 216.272 139.84 217.736 138.416 219L137.936 219.408C135.792 221.232 134.384 222.72 133.712 223.872C133.472 224.272 133.352 224.608 133.352 224.88C133.352 225.056 133.504 225.168 133.808 225.216C134.128 225.248 134.736 225.264 135.632 225.264C137.888 225.264 139.352 224.896 140.024 224.16C140.104 224.112 140.184 224.088 140.264 224.088C140.456 224.088 140.552 224.36 140.552 224.904C140.552 225.448 140.44 226.032 140.216 226.656C139.992 227.264 139.664 227.696 139.232 227.952C138.928 228.144 138.112 228.24 136.784 228.24ZM149.083 220.92C148.971 220.408 148.755 219.992 148.435 219.672C148.115 219.336 147.715 219.168 147.235 219.168C146.771 219.168 146.379 219.336 146.059 219.672C145.739 219.992 145.515 220.4 145.387 220.896C145.211 221.68 145.123 222.352 145.123 222.912C145.123 223.472 145.171 224.016 145.267 224.544C145.363 225.056 145.579 225.544 145.915 226.008C146.251 226.472 146.659 226.704 147.139 226.704C147.619 226.704 148.003 226.568 148.291 226.296C148.595 226.008 148.819 225.648 148.963 225.216C149.235 224.4 149.371 223.752 149.371 223.272C149.371 222.792 149.355 222.408 149.323 222.12C149.291 221.816 149.211 221.416 149.083 220.92ZM147.331 228.312C146.403 228.312 145.595 228.168 144.907 227.88C144.235 227.592 143.707 227.232 143.323 226.8C142.955 226.352 142.667 225.792 142.459 225.12C142.107 224.032 141.931 222.824 141.931 221.496C141.931 220.152 141.971 219.048 142.051 218.184C142.147 217.32 142.331 216.416 142.603 215.472C142.891 214.528 143.251 213.72 143.683 213.048C144.131 212.376 144.739 211.824 145.507 211.392C146.275 210.96 147.163 210.744 148.171 210.744C148.811 210.744 149.563 210.888 150.427 211.176C150.939 211.352 151.363 211.672 151.699 212.136C152.035 212.6 152.203 213.176 152.203 213.864C152.203 214.312 152.107 214.688 151.915 214.992C151.547 215.584 151.051 215.88 150.427 215.88C150.075 215.88 149.747 215.768 149.443 215.544C149.155 215.32 149.011 215.104 149.011 214.896C149.011 214.672 149.083 214.456 149.227 214.248C149.371 214.04 149.443 213.8 149.443 213.528C149.443 212.632 148.923 212.184 147.883 212.184C147.803 212.184 147.699 212.192 147.571 212.208C147.459 212.224 147.243 212.344 146.923 212.568C146.603 212.776 146.323 213.072 146.083 213.456C145.843 213.824 145.619 214.424 145.411 215.256C145.219 216.088 145.123 217.08 145.123 218.232C145.139 218.36 145.187 218.424 145.267 218.424C145.283 218.424 145.323 218.408 145.387 218.376C145.579 218.152 145.955 217.936 146.515 217.728C147.075 217.504 147.659 217.392 148.267 217.392C148.875 217.392 149.435 217.496 149.947 217.704C150.459 217.912 150.851 218.192 151.123 218.544C151.411 218.896 151.651 219.256 151.843 219.624C152.035 219.976 152.171 220.352 152.251 220.752C152.363 221.44 152.419 221.92 152.419 222.192C152.419 223.904 151.971 225.352 151.075 226.536C150.195 227.72 148.947 228.312 147.331 228.312Z" fill="#F7F7F7"/>
</svg>
