<svg width="97" height="93" viewBox="0 0 97 93" fill="none" xmlns="http://www.w3.org/2000/svg">
    <path d="M97 53.4928C97 55.0269 96.7233 56.4404 96.1699 57.7333C95.6267 59.0165 94.8529 60.1213 93.8486 61.0476C92.8545 61.9738 91.6554 62.6974 90.2513 63.2185C88.8473 63.7395 87.2895 64 85.578 64H77V43H85.578C87.2895 43 88.8473 43.2605 90.2513 43.7815C91.6554 44.3026 92.8545 45.031 93.8486 45.9669C94.8529 46.8932 95.6267 47.9979 96.1699 49.2812C96.7233 50.5644 97 51.9683 97 53.4928ZM92.2652 53.4928C92.2652 52.3928 92.1115 51.4039 91.804 50.5258C91.4965 49.6478 91.0559 48.9049 90.4819 48.297C89.908 47.6892 89.206 47.2212 88.3759 46.8932C87.556 46.5651 86.6234 46.4011 85.578 46.4011H81.6426V60.5989H85.578C86.6234 60.5989 87.556 60.4397 88.3759 60.1213C89.206 59.7932 89.908 59.3253 90.4819 58.7174C91.0559 58.0999 91.4965 57.3522 91.804 56.4742C92.1115 55.5961 92.2652 54.6023 92.2652 53.4928Z" fill="#67C39F"/>
    <path fill-rule="evenodd" clip-rule="evenodd" d="M12.122 46.3589L10.6227 43L8.96237 46.2822L3.26967 57.5356L0 63.9992H3.92234L5.90715 60.0756H14.4116L16.1629 63.9992H19.9957L17.1449 57.6123L12.122 46.3589ZM12.8494 56.5756H7.67767L10.4251 51.1443L12.8494 56.5756Z" fill="#67C39F"/>
    <path d="M43.4494 87H42.8674V82.701H43.4494V87Z" fill="#67C39F"/>
    <path d="M49.8195 84.852C49.8195 85.228 49.7785 85.554 49.6965 85.83C49.6165 86.104 49.5065 86.331 49.3665 86.511C49.2265 86.691 49.0605 86.825 48.8685 86.913C48.6785 87.001 48.4745 87.045 48.2565 87.045C48.0365 87.045 47.8315 87.001 47.6415 86.913C47.4535 86.825 47.2895 86.691 47.1495 86.511C47.0095 86.331 46.8995 86.104 46.8195 85.83C46.7395 85.554 46.6995 85.228 46.6995 84.852C46.6995 84.476 46.7395 84.15 46.8195 83.874C46.8995 83.598 47.0095 83.37 47.1495 83.19C47.2895 83.008 47.4535 82.873 47.6415 82.785C47.8315 82.697 48.0365 82.653 48.2565 82.653C48.4745 82.653 48.6785 82.697 48.8685 82.785C49.0605 82.873 49.2265 83.008 49.3665 83.19C49.5065 83.37 49.6165 83.598 49.6965 83.874C49.7785 84.15 49.8195 84.476 49.8195 84.852ZM49.2645 84.852C49.2645 84.524 49.2365 84.249 49.1805 84.027C49.1265 83.803 49.0525 83.623 48.9585 83.487C48.8665 83.351 48.7595 83.254 48.6375 83.196C48.5155 83.136 48.3885 83.106 48.2565 83.106C48.1245 83.106 47.9975 83.136 47.8755 83.196C47.7535 83.254 47.6465 83.351 47.5545 83.487C47.4625 83.623 47.3885 83.803 47.3325 84.027C47.2785 84.249 47.2515 84.524 47.2515 84.852C47.2515 85.18 47.2785 85.455 47.3325 85.677C47.3885 85.899 47.4625 86.078 47.5545 86.214C47.6465 86.35 47.7535 86.448 47.8755 86.508C47.9975 86.566 48.1245 86.595 48.2565 86.595C48.3885 86.595 48.5155 86.566 48.6375 86.508C48.7595 86.448 48.8665 86.35 48.9585 86.214C49.0525 86.078 49.1265 85.899 49.1805 85.677C49.2365 85.455 49.2645 85.18 49.2645 84.852Z" fill="#67C39F"/>
    <path d="M46.8195 84.852C46.8195 85.228 46.7785 85.554 46.6965 85.83C46.6165 86.104 46.5065 86.331 46.3665 86.511C46.2265 86.691 46.0605 86.825 45.8685 86.913C45.6785 87.001 45.4745 87.045 45.2565 87.045C45.0365 87.045 44.8315 87.001 44.6415 86.913C44.4535 86.825 44.2895 86.691 44.1495 86.511C44.0095 86.331 43.8995 86.104 43.8195 85.83C43.7395 85.554 43.6995 85.228 43.6995 84.852C43.6995 84.476 43.7395 84.15 43.8195 83.874C43.8995 83.598 44.0095 83.37 44.1495 83.19C44.2895 83.008 44.4535 82.873 44.6415 82.785C44.8315 82.697 45.0365 82.653 45.2565 82.653C45.4745 82.653 45.6785 82.697 45.8685 82.785C46.0605 82.873 46.2265 83.008 46.3665 83.19C46.5065 83.37 46.6165 83.598 46.6965 83.874C46.7785 84.15 46.8195 84.476 46.8195 84.852ZM46.2645 84.852C46.2645 84.524 46.2365 84.249 46.1805 84.027C46.1265 83.803 46.0525 83.623 45.9585 83.487C45.8665 83.351 45.7595 83.254 45.6375 83.196C45.5155 83.136 45.3885 83.106 45.2565 83.106C45.1245 83.106 44.9975 83.136 44.8755 83.196C44.7535 83.254 44.6465 83.351 44.5545 83.487C44.4625 83.623 44.3885 83.803 44.3325 84.027C44.2785 84.249 44.2515 84.524 44.2515 84.852C44.2515 85.18 44.2785 85.455 44.3325 85.677C44.3885 85.899 44.4625 86.078 44.5545 86.214C44.6465 86.35 44.7535 86.448 44.8755 86.508C44.9975 86.566 45.1245 86.595 45.2565 86.595C45.3885 86.595 45.5155 86.566 45.6375 86.508C45.7595 86.448 45.8665 86.35 45.9585 86.214C46.0525 86.078 46.1265 85.899 46.1805 85.677C46.2365 85.455 46.2645 85.18 46.2645 84.852Z" fill="#67C39F"/>
    <path d="M52.3555 83.739C52.3555 83.907 52.3295 84.058 52.2775 84.192C52.2255 84.324 52.1555 84.436 52.0675 84.528C51.9815 84.618 51.8805 84.687 51.7645 84.735C51.6505 84.783 51.5295 84.807 51.4015 84.807C51.2675 84.807 51.1425 84.783 51.0265 84.735C50.9105 84.687 50.8095 84.618 50.7235 84.528C50.6395 84.436 50.5735 84.324 50.5255 84.192C50.4775 84.058 50.4535 83.907 50.4535 83.739C50.4535 83.567 50.4775 83.414 50.5255 83.28C50.5735 83.146 50.6395 83.033 50.7235 82.941C50.8095 82.849 50.9105 82.779 51.0265 82.731C51.1425 82.683 51.2675 82.659 51.4015 82.659C51.5375 82.659 51.6635 82.683 51.7795 82.731C51.8955 82.779 51.9965 82.849 52.0825 82.941C52.1685 83.033 52.2355 83.146 52.2835 83.28C52.3315 83.414 52.3555 83.567 52.3555 83.739ZM51.9415 83.739C51.9415 83.607 51.9275 83.495 51.8995 83.403C51.8715 83.311 51.8325 83.236 51.7825 83.178C51.7345 83.118 51.6775 83.075 51.6115 83.049C51.5455 83.023 51.4755 83.01 51.4015 83.01C51.3275 83.01 51.2585 83.023 51.1945 83.049C51.1305 83.075 51.0745 83.118 51.0265 83.178C50.9785 83.236 50.9405 83.311 50.9125 83.403C50.8845 83.495 50.8705 83.607 50.8705 83.739C50.8705 83.869 50.8845 83.98 50.9125 84.072C50.9405 84.162 50.9785 84.236 51.0265 84.294C51.0745 84.35 51.1305 84.391 51.1945 84.417C51.2585 84.441 51.3275 84.453 51.4015 84.453C51.4755 84.453 51.5455 84.441 51.6115 84.417C51.6775 84.391 51.7345 84.35 51.7825 84.294C51.8325 84.236 51.8715 84.162 51.8995 84.072C51.9275 83.98 51.9415 83.869 51.9415 83.739ZM53.8765 82.791C53.8965 82.767 53.9195 82.746 53.9455 82.728C53.9735 82.71 54.0105 82.701 54.0565 82.701H54.4435L51.2995 86.913C51.2815 86.939 51.2585 86.96 51.2305 86.976C51.2025 86.992 51.1685 87 51.1285 87H50.7355L53.8765 82.791ZM54.7345 85.986C54.7345 86.154 54.7085 86.304 54.6565 86.436C54.6045 86.568 54.5345 86.68 54.4465 86.772C54.3605 86.862 54.2595 86.931 54.1435 86.979C54.0295 87.027 53.9085 87.051 53.7805 87.051C53.6445 87.051 53.5185 87.027 53.4025 86.979C53.2885 86.931 53.1885 86.862 53.1025 86.772C53.0185 86.68 52.9525 86.568 52.9045 86.436C52.8565 86.304 52.8325 86.154 52.8325 85.986C52.8325 85.814 52.8565 85.661 52.9045 85.527C52.9525 85.391 53.0185 85.277 53.1025 85.185C53.1885 85.093 53.2885 85.023 53.4025 84.975C53.5185 84.927 53.6445 84.903 53.7805 84.903C53.9145 84.903 54.0395 84.927 54.1555 84.975C54.2735 85.023 54.3745 85.093 54.4585 85.185C54.5445 85.277 54.6115 85.391 54.6595 85.527C54.7095 85.661 54.7345 85.814 54.7345 85.986ZM54.3205 85.986C54.3205 85.854 54.3065 85.742 54.2785 85.65C54.2505 85.556 54.2115 85.48 54.1615 85.422C54.1135 85.364 54.0565 85.322 53.9905 85.296C53.9245 85.27 53.8545 85.257 53.7805 85.257C53.7065 85.257 53.6365 85.27 53.5705 85.296C53.5065 85.322 53.4505 85.364 53.4025 85.422C53.3545 85.48 53.3165 85.556 53.2885 85.65C53.2625 85.742 53.2495 85.854 53.2495 85.986C53.2495 86.116 53.2625 86.226 53.2885 86.316C53.3165 86.406 53.3545 86.48 53.4025 86.538C53.4505 86.594 53.5065 86.635 53.5705 86.661C53.6365 86.685 53.7065 86.697 53.7805 86.697C53.8545 86.697 53.9245 86.685 53.9905 86.661C54.0565 86.635 54.1135 86.594 54.1615 86.538C54.2115 86.48 54.2505 86.406 54.2785 86.316C54.3065 86.226 54.3205 86.116 54.3205 85.986Z" fill="#67C39F"/>
    <path d="M10 15L41 46M87 15L56 46M10 92L41 61M56 61L87 92" stroke="#67C39F"/>
    <path fill-rule="evenodd" clip-rule="evenodd" d="M47.6134 52C47.9694 52 48.1815 51.7348 48.1815 51.5C48.1815 51.2652 47.9694 51 47.6134 51C47.2574 51 47.0454 51.2652 47.0454 51.5C47.0454 51.7348 47.2574 52 47.6134 52ZM49.1815 51.5C49.1815 52.3284 48.4794 53 47.6134 53C46.6801 53 46 53.7129 46 54.5C46 55.2871 46.6801 56 47.6134 56C48.472 56 49.1162 55.3968 49.214 54.6875C49.0634 54.5592 48.9069 54.4111 48.7371 54.239L49.4806 53.5567C49.8218 53.9026 50.0604 54.0972 50.2755 54.2262C50.485 54.3518 50.6946 54.4288 51.0029 54.5114L50.7154 55.4572C50.5004 55.3997 50.3013 55.3376 50.1057 55.2544C49.7713 56.2664 48.7819 57 47.6134 57C46.1701 57 45 55.8807 45 54.5C45 53.5737 45.5267 52.765 46.3092 52.3331C46.1426 52.0948 46.0454 51.8082 46.0454 51.5C46.0454 50.6716 46.7474 50 47.6134 50C48.4794 50 49.1815 50.6716 49.1815 51.5Z" fill="#67C39F"/>
    <circle cx="48.5" cy="15.5" r="8.75" stroke="#67C39F" stroke-width="3.5"/>
</svg>
