<svg width="125" height="79" viewBox="0 0 125 79" fill="none" xmlns="http://www.w3.org/2000/svg">
    <path d="M34.6927 43.7229C32.0667 42.7749 29.1605 40.6683 27.5499 38.5265C22.858 32.3118 23.6983 23.0425 29.3706 17.9163C31.9967 15.5989 34.9378 14.4052 38.6143 14.2296C40.5401 14.1243 42.4659 14.2647 43.6913 14.5456C44.7768 14.7914 45.7922 15.0021 45.9322 15.0372C46.0723 15.0372 46.9827 13.7029 47.893 12.0878L49.6087 9.1385L48.9084 7.45316C48.2081 5.80294 48.1731 5.76783 46.2474 5.52205C43.1661 5.13583 41.4154 2.88872 42.781 1.02783C43.0961 0.606496 43.9715 0.325607 45.4771 0.150052C48.3482 -0.236171 56.8916 0.185163 57.4168 0.711829C57.6269 0.922496 57.732 1.44916 57.6619 1.90561C57.5569 2.67805 57.3818 2.74827 55.281 2.85361C53.5303 2.92383 52.76 3.16961 51.8846 3.83672C50.5541 4.85494 50.5191 5.0305 51.3594 7.03183L51.9546 8.54161H64.1395C70.8272 8.54161 76.2894 8.43627 76.2894 8.29583C76.2894 8.1905 76.0443 7.2425 75.7291 6.25939C75.379 5.24116 75.239 4.01227 75.379 3.52072C75.6941 2.25672 78.7754 0.782052 81.6115 0.571385C83.5373 0.430941 83.9925 0.501163 85.0429 1.2385C87.3888 2.85361 87.5989 6.25939 85.4981 8.26072C83.0821 10.5078 80.8412 10.5429 80.8412 8.33094C80.8412 8.08516 81.4714 7.52339 82.2067 7.13716C83.1871 6.64561 83.7123 6.11894 83.9925 5.20605C84.5527 3.52072 84.0275 2.92383 82.1017 2.92383C80.6661 2.92383 77.6899 4.04739 77.7249 4.57405C77.7249 4.7145 78.4602 6.96161 79.3706 9.52472L81.0163 14.1945L85.0429 14.2647C88.7544 14.3349 89.2446 14.4403 91.3454 15.4234C97.2277 18.2323 100.449 23.8149 99.9939 30.3105C99.6787 35.1909 97.3678 39.1936 93.4112 41.8621C90.435 43.8634 88.1941 44.4603 84.2376 44.2847C79.8958 44.0741 77.6199 43.1612 74.7137 40.4225C68.8314 34.9101 68.0611 26.6941 72.788 20.0581C73.5583 18.9696 75.0289 17.5301 76.1843 16.7576C77.3048 16.0203 78.3552 15.3181 78.4953 15.1776C78.6703 15.0723 78.5303 14.3701 78.2502 13.6327L77.6899 12.2985L71.3874 20.7954L65.0849 29.2923L65.6801 30.9776C66.1703 32.4172 66.2053 32.9087 65.8552 34.0674C65.33 35.7878 63.9644 37.2274 62.4939 37.6136C61.3384 37.9296 60.6731 39.4394 61.6885 39.4394C62.3888 39.4394 62.739 40.4576 62.2488 41.0896C61.9336 41.4407 61.1633 41.5461 59.5177 41.4758C57.3118 41.3705 57.2067 41.3354 57.2067 40.4927C57.2067 39.8607 57.4168 39.5798 58.0121 39.5096C58.6073 39.4043 58.7824 39.1585 58.7824 38.3861C58.7824 37.4381 58.6073 37.2976 56.4715 36.6305C55.2109 36.2443 53.9855 35.9283 53.7404 35.9283C53.5303 35.9283 53.0401 36.4901 52.6549 37.1923C51.5695 39.2287 47.893 42.4238 45.5821 43.3367C42.7109 44.4603 37.2838 44.6358 34.6927 43.7229ZM42.886 40.6683C45.267 39.9661 47.6479 38.3158 49.0835 36.3496L50.309 34.7345L45.5121 33.2247C42.886 32.3821 40.295 31.7149 39.7698 31.7149C38.7194 31.7149 37.0737 30.3456 37.0737 29.4678C37.0737 28.3794 37.914 27.1154 38.7894 26.9047C39.5247 26.7643 40.1549 25.9216 41.9757 22.6563C43.2362 20.4092 44.2866 18.4781 44.3566 18.3376C44.6017 17.8109 41.1353 17.2492 38.7194 17.3896C35.5331 17.6003 33.2922 18.6887 31.0163 21.1465C28.6353 23.6745 27.865 25.6407 27.83 29.0816C27.795 31.3989 27.935 32.2065 28.7053 33.8216C31.3664 39.5096 37.2488 42.3536 42.886 40.6683ZM90.0849 39.8256C97.2978 36.2794 99.0835 27.2207 93.7263 21.3572C91.1703 18.5483 89.1395 17.6003 85.323 17.3896C83.5723 17.3194 82.2418 17.3896 82.2418 17.5652C82.2418 18.6887 85.4981 26.8696 86.2333 27.6421C87.3188 28.6954 87.3888 29.7136 86.4434 30.6616C85.6731 31.4341 84.6577 31.5745 83.6073 31.0127C83.0821 30.7318 82.942 30.2754 82.942 28.9061C82.942 27.4314 82.1717 24.7981 79.9658 18.7941C79.5457 17.6705 75.6241 21.1816 74.2586 23.8852C71.6675 28.9763 73.3132 35.6474 78.0051 38.8776C81.7516 41.5109 86.0233 41.8269 90.0849 39.8256ZM56.0513 34.1727C55.9462 33.3301 55.7362 33.1194 55.0709 33.1194C54.6157 33.1194 54.2306 33.2598 54.2306 33.4354C54.2306 33.6109 54.1255 33.9972 54.0205 34.2781C53.8454 34.8047 54.3706 35.0856 55.6661 35.1909C56.0863 35.2261 56.1563 34.9803 56.0513 34.1727ZM50.9042 33.0843C51.0443 32.8736 51.0443 32.6278 50.9392 32.5225C50.7292 32.3118 43.5163 31.0127 42.851 31.0478C42.3608 31.0829 49.3636 33.4003 50.0989 33.4354C50.414 33.4705 50.7992 33.2949 50.9042 33.0843ZM56.7866 29.7838C57.2418 29.1518 57.2768 28.9061 56.9616 28.9061C56.7165 28.9061 56.1563 28.8007 55.7362 28.6954C55.0359 28.4847 54.9308 28.5901 54.9308 29.5732C54.9308 30.9425 55.8762 31.0478 56.7866 29.7838ZM51.6045 29.2572C51.6045 28.8358 50.9042 28.7305 47.753 28.6603L43.9014 28.6252L47.2278 29.2572C51.0443 29.9594 51.6045 29.9594 51.6045 29.2572ZM57.2768 27.4314C55.9462 23.9905 50.9392 12.4038 50.7642 12.4038C50.6241 12.4038 50.0289 13.3518 49.3986 14.4754L48.2432 16.5821L49.5037 17.4949C51.7446 19.2505 53.8804 23.0425 54.7208 26.9047C54.9308 27.7123 55.1059 27.8527 56.1913 27.8527C57.0667 27.8527 57.4168 27.7123 57.2768 27.4314ZM51.2894 26.5536C50.8342 24.6927 49.3636 22.0594 47.9981 20.7252L46.6325 19.3909L44.4967 23.1478C43.3412 25.2545 42.4659 27.0803 42.5359 27.2207C42.6409 27.3612 44.7067 27.5016 47.1227 27.5016H51.4995L51.2894 26.5536ZM60.6381 26.7994C60.7782 26.2727 60.6381 26.0972 60.1479 26.0972C59.4126 26.0972 59.3776 26.1323 59.6927 26.9398C59.9729 27.7123 60.428 27.6421 60.6381 26.7994ZM64.0345 26.4132C64.0345 26.2376 63.7894 26.0972 63.5093 26.0972C63.1941 26.0972 62.9841 26.4132 62.9841 26.8345C62.9841 27.4665 63.0541 27.5016 63.5093 27.1505C63.7894 26.9047 64.0345 26.5887 64.0345 26.4132ZM62.0737 24.0607C64.2095 23.9554 64.4546 24.0256 64.6297 24.6927C64.7698 25.2545 65.9252 23.9203 70.232 18.1621C73.2081 14.1945 75.5891 10.8589 75.4841 10.7887C75.414 10.7185 70.302 10.6834 64.1395 10.7185L52.9701 10.8238L56.1213 18.3025C58.5023 23.9203 59.3426 25.6056 59.4827 24.9736C59.6577 24.2363 59.9028 24.1661 62.0737 24.0607Z" fill="#F7F7F7"/>
    <path d="M21.8311 63.4316C21.8311 64.5918 21.4121 65.5059 20.5742 66.1738C19.7422 66.8418 18.582 67.1758 17.0938 67.1758C15.7227 67.1758 14.5098 66.918 13.4551 66.4023V63.8711C14.3223 64.2578 15.0547 64.5303 15.6523 64.6885C16.2559 64.8467 16.8066 64.9258 17.3047 64.9258C17.9023 64.9258 18.3594 64.8115 18.6758 64.583C18.998 64.3545 19.1592 64.0146 19.1592 63.5635C19.1592 63.3115 19.0889 63.0889 18.9482 62.8955C18.8076 62.6963 18.5996 62.5059 18.3242 62.3242C18.0547 62.1426 17.501 61.8525 16.6631 61.4541C15.8779 61.085 15.2891 60.7305 14.8965 60.3906C14.5039 60.0508 14.1904 59.6553 13.9561 59.2041C13.7217 58.7529 13.6045 58.2256 13.6045 57.6221C13.6045 56.4854 13.9883 55.5918 14.7559 54.9414C15.5293 54.291 16.5957 53.9658 17.9551 53.9658C18.623 53.9658 19.2588 54.0449 19.8623 54.2031C20.4717 54.3613 21.1074 54.584 21.7695 54.8711L20.8906 56.9893C20.2051 56.708 19.6367 56.5117 19.1855 56.4004C18.7402 56.2891 18.3008 56.2334 17.8672 56.2334C17.3516 56.2334 16.9561 56.3535 16.6807 56.5938C16.4053 56.834 16.2676 57.1475 16.2676 57.5342C16.2676 57.7744 16.3232 57.9854 16.4346 58.167C16.5459 58.3428 16.7217 58.5156 16.9619 58.6855C17.208 58.8496 17.7852 59.1484 18.6934 59.582C19.8945 60.1562 20.7178 60.7334 21.1631 61.3135C21.6084 61.8877 21.8311 62.5938 21.8311 63.4316ZM34.6895 67H31.9736V61.4541H26.8848V67H24.1602V54.1504H26.8848V59.1865H31.9736V54.1504H34.6895V67ZM49.6045 60.5576C49.6045 62.6846 49.0771 64.3193 48.0225 65.4619C46.9678 66.6045 45.4561 67.1758 43.4873 67.1758C41.5186 67.1758 40.0068 66.6045 38.9521 65.4619C37.8975 64.3193 37.3701 62.6787 37.3701 60.54C37.3701 58.4014 37.8975 56.7695 38.9521 55.6445C40.0127 54.5137 41.5303 53.9482 43.5049 53.9482C45.4795 53.9482 46.9883 54.5166 48.0312 55.6533C49.0801 56.79 49.6045 58.4248 49.6045 60.5576ZM40.2266 60.5576C40.2266 61.9932 40.499 63.0742 41.0439 63.8008C41.5889 64.5273 42.4033 64.8906 43.4873 64.8906C45.6611 64.8906 46.748 63.4463 46.748 60.5576C46.748 57.6631 45.667 56.2158 43.5049 56.2158C42.4209 56.2158 41.6035 56.582 41.0527 57.3145C40.502 58.041 40.2266 59.1221 40.2266 60.5576ZM54.9922 60.1973H55.8887C56.7266 60.1973 57.3535 60.0332 57.7695 59.7051C58.1855 59.3711 58.3936 58.8877 58.3936 58.2549C58.3936 57.6162 58.2178 57.1445 57.8662 56.8398C57.5205 56.5352 56.9756 56.3828 56.2314 56.3828H54.9922V60.1973ZM61.1445 58.1582C61.1445 59.541 60.7109 60.5986 59.8438 61.3311C58.9824 62.0635 57.7549 62.4297 56.1611 62.4297H54.9922V67H52.2676V54.1504H56.3721C57.9307 54.1504 59.1143 54.4873 59.9229 55.1611C60.7373 55.8291 61.1445 56.8281 61.1445 58.1582ZM79.6455 67H76.1826L70.5928 57.2793H70.5137C70.625 58.9961 70.6807 60.2207 70.6807 60.9531V67H68.2461V54.1504H71.6826L77.2637 63.7744H77.3252C77.2373 62.1045 77.1934 60.9238 77.1934 60.2324V54.1504H79.6455V67ZM94.5518 60.5576C94.5518 62.6846 94.0244 64.3193 92.9697 65.4619C91.915 66.6045 90.4033 67.1758 88.4346 67.1758C86.4658 67.1758 84.9541 66.6045 83.8994 65.4619C82.8447 64.3193 82.3174 62.6787 82.3174 60.54C82.3174 58.4014 82.8447 56.7695 83.8994 55.6445C84.96 54.5137 86.4775 53.9482 88.4521 53.9482C90.4268 53.9482 91.9355 54.5166 92.9785 55.6533C94.0273 56.79 94.5518 58.4248 94.5518 60.5576ZM85.1738 60.5576C85.1738 61.9932 85.4463 63.0742 85.9912 63.8008C86.5361 64.5273 87.3506 64.8906 88.4346 64.8906C90.6084 64.8906 91.6953 63.4463 91.6953 60.5576C91.6953 57.6631 90.6143 56.2158 88.4521 56.2158C87.3682 56.2158 86.5508 56.582 86 57.3145C85.4492 58.041 85.1738 59.1221 85.1738 60.5576ZM109.73 67H106.628L104.888 60.25C104.823 60.0098 104.712 59.5146 104.554 58.7646C104.401 58.0088 104.313 57.502 104.29 57.2441C104.255 57.5605 104.167 58.0703 104.026 58.7734C103.886 59.4707 103.777 59.9688 103.701 60.2676L101.97 67H98.876L95.5977 54.1504H98.2783L99.9219 61.1641C100.209 62.459 100.417 63.5811 100.546 64.5303C100.581 64.1963 100.66 63.6807 100.783 62.9834C100.912 62.2803 101.032 61.7354 101.144 61.3486L103.016 54.1504H105.591L107.463 61.3486C107.545 61.6709 107.647 62.1631 107.771 62.8252C107.894 63.4873 107.987 64.0557 108.052 64.5303C108.11 64.0732 108.204 63.5049 108.333 62.8252C108.462 62.1396 108.579 61.5859 108.685 61.1641L110.319 54.1504H113L109.73 67Z" fill="#F7F7F7"/>
</svg>
